<svg xmlns="http://www.w3.org/2000/svg" width="110.572" height="102.704" viewBox="0 0 110.572 102.704"><defs><style>.a{fill:#eff3f4;}</style></defs><g transform="translate(79.178 45.013)"><path class="a" d="M592.835,634.253l.078-.072c0,.032,0,.065,0,.1l-.083-.025m-.691,3.462-.114-.092.266-.348.142.116-.294.324m-.177,1.114a1.036,1.036,0,0,1-.06-.124c0-.006.036-.027.056-.041.018.038.036.075.056.118l-.052.046m-.056.518-.106.026a.353.353,0,0,1-.005-.065c.039-.01.078-.014.118-.02,0,.02-.005.04-.007.059m-3.485,15.531-.086-.061c.052-.09.105-.18.158-.269l.118.1-.19.226m-11.8-24.083.03-.042.011.053Zm-.278.636c-.015-.017-.046-.039-.042-.052a.7.7,0,0,1,.052-.117l.048.051c-.019.04-.039.078-.058.117m-1.107,2.739-.111-.047.15-.334.1.039c-.045.114-.089.228-.134.342m-.961,3.849-.024-.048h.049Zm2.966-8.657c.008.019.022.038.02.055s-.022.031-.033.046c.005-.033.009-.067.014-.1m.428-.637.016.039-.04,0Zm.659-1.463c-.049.1-.1.192-.148.288l-.084-.067.232-.221m.277-.515c-.026.041-.053.08-.079.12.006-.05.013-.1.02-.148l.06.028m24.892,12.009a15.14,15.14,0,0,0-2.76.917,10.607,10.607,0,0,0-1.327,1.033q-2.217,1.475-4.474,2.892a7,7,0,0,1-1.091.441,11.074,11.074,0,0,0,.377-1.174c.272-1.421.58-2.84.763-4.274a29.439,29.439,0,0,1,1.37-5.716c1.264-3.742,2.269-7.578,4.131-11.1a2.67,2.67,0,0,0,.2-.632c.248-1.047-.33-1.465-1.351-1.519-.6-.032-1.209.125-1.811.113a2.463,2.463,0,0,0-2.408,1.6l.051.057.592-.448.152.141a17.7,17.7,0,0,1-1.234,1.707c-1.876,2.052-3.365,4.4-5.158,6.528-1.764,2.089-3.124,4.514-4.752,6.726a21.34,21.34,0,0,1-2.42,2.522c-.3.289-.731.438-1.045.716a28.708,28.708,0,0,1-2.288,2.1c-1.292.912-1.724.64-1.83-.92a11.755,11.755,0,0,1,1.206-5.451c1.281-2.992,2.627-5.956,3.948-8.932.428-.966.809-1.959,1.309-2.888.634-1.178,1.7-2.214.91-3.761l-.624.224c-.127-.657-.451-.858-.972-.645l.008.006-.01,0c-.1.043-.26.057-.307.135-1.534,2.524-3.093,5.035-4.565,7.6-.586,1.018-.912,2.185-1.483,3.215a9.035,9.035,0,0,1-1.341,2.5c-.371.361-.338,1.13-.5,1.712a19.346,19.346,0,0,1-.887,3,9.351,9.351,0,0,0-.618,3.263,2.568,2.568,0,0,0,1.029,2.2,4.51,4.51,0,0,0,2.635,1.074,8.277,8.277,0,0,0,7.012-2.741c1.5-1.6,3.38-2.862,4.382-4.952a28.259,28.259,0,0,1,2.121-3.052c.867-1.321,1.664-2.689,2.516-4.02a6.622,6.622,0,0,1,.8-.84l.066.7-.014-.012c.358.514-.141.82-.294,1.208l-.015,0q-.445,2.457-.889,4.914l.019-.015c0,.057,0,.115,0,.171l-.019-.017a8.44,8.44,0,0,1,.111,1.225c-.01.218-.235.624-.3.612-.753-.131-.613.477-.7.837a16.213,16.213,0,0,0-.307,1.885c-.013.114.173.249.271.38a8.61,8.61,0,0,0-.839,3.767q-.383,1.774-.765,3.549l-.13-.024c.017-.16.033-.319.05-.48l-.016.012c-.235.338-.484.669-.7,1.017a.836.836,0,0,0,.115,1.236c0-.014.006-.028.009-.042a.249.249,0,0,0,0,.028,11.984,11.984,0,0,0-.72,1.046c-.152.275-.164.627-.321.9-.392.668-.837,1.3-1.251,1.959a10.455,10.455,0,0,0-.858,1.445,9.192,9.192,0,0,1-1.2,2.384,3.3,3.3,0,0,0-.376,1.141,2.705,2.705,0,0,1-1.628,1.88l2.143.987h1.487a12.421,12.421,0,0,0,1.486-.793,9.244,9.244,0,0,0,3.607-5.067,52.66,52.66,0,0,0,1.65-7.334,1.038,1.038,0,0,1,.288-.567,39.612,39.612,0,0,1,4.243-3.8c1.823-1.25,3.885-2.15,5.819-3.244.365-.207.9-.644.869-.922-.075-.685-.783-.405-1.145-.322" transform="translate(-573.259 -618.931)"/></g><g transform="translate(57.688 50.205)"><path class="a" d="M570.679,629.563c.024-.427-.154-.938-.683-.84a9.585,9.585,0,0,0-3.268.871,7.818,7.818,0,0,0-3.255,4.021,5.073,5.073,0,0,1-.27.544l0,.015c-.441.5-.9.992-1.313,1.513a4.365,4.365,0,0,0-.362.721,9.133,9.133,0,0,1-.636,1.142c-.555.759-1.137,1.5-1.739,2.226-.441.531-.936,1.018-1.394,1.535a2.972,2.972,0,0,0-.625.805,3.07,3.07,0,0,1-1.687,1.851,10.65,10.65,0,0,0-1.893,1.4c-.16.124-.309.261-.463.391l-.216-.1c.247-.994.439-2.005.753-2.977a36.7,36.7,0,0,1,4.161-8.378,57.228,57.228,0,0,1,4.023-6.342,1.639,1.639,0,0,0,.19-.477l-.161-.155.479-.289c.578-.192,1.165-.36,1.731-.585a1.229,1.229,0,0,1,1.36.268,4.376,4.376,0,0,0,.738.614c.925.492,1.773,1.414,2.972.627l-.015.008c.033-.254.066-.509.127-.977a19.943,19.943,0,0,0-1.776-1.558,3.628,3.628,0,0,0-1.669-.727,10.462,10.462,0,0,0-5.238,1.326,16.466,16.466,0,0,0-4.258,3.3,18.285,18.285,0,0,0-2.041,3.029,29.452,29.452,0,0,0-4.373,9.036,7.693,7.693,0,0,0-.095,4.815c.751,1.951,1.355,2.518,3.574,1.934,1.212-.318,2.542-.335,3.5-1.392,1.735-1.918,3.8-3.531,5.24-5.725a26.367,26.367,0,0,1,1.668-2.056,1.732,1.732,0,0,1,.06.357,31.252,31.252,0,0,1-.435,3.9c-.324,1.408.2,2.68.322,4.014a.936.936,0,0,0,.306.581c1.146.946,2.288,1.864,3.964,1.261a1.407,1.407,0,0,0,.651-2.13l-.618.295a1.97,1.97,0,0,1-.263-.223,1.12,1.12,0,0,1-.195-.313c-.715-1.958-.234-3.915.062-5.86.1-.665.557-1.282.625-1.944a23.55,23.55,0,0,1,2.126-7.98,3.694,3.694,0,0,0,.309-1.366" transform="translate(-549.432 -624.687)"/></g><g transform="translate(70.262 52.999)"><path class="a" d="M563.373,627.785h0l.018.018Z" transform="translate(-563.373 -627.785)"/></g><g transform="translate(31.303 39.051)"><path class="a" d="M526.286,627.818c.472-1.17.067-2.557,1.048-3.6l0,.007q-.391,1.828-.786,3.657l-.258-.065m1,1.967a.787.787,0,0,1-.044-.113c0-.009.031-.026.049-.04.013.034.026.069.04.1l-.044.049m.441-7,.012.045-.039-.007Zm-2.246,14.866-.227-.047c.052-.243.1-.487.153-.731l.182.065q-.054.357-.108.713m-.162.651.006-.043.041.028Zm1.571,10.306c.456-1.034.909-2.07,1.378-3.1.015-.032.166,0,.265,0q-.418,1.147-.838,2.3l-.207-.078c.075.469.315,1.04-.568.912l-.07.092c.013-.042.026-.082.04-.123m1.7-3.139a.124.124,0,0,1-.024.017l.022-.055c0,.013.008.032,0,.038m4.246-8.025a5.15,5.15,0,0,1,2.085-2.9c-.208.75-1.154,1.15-.958,2.026l-1.091.91c-.04.134-.079.268-.119.4,1.3.123,1.59-.744,1.751-1.741l.008.006c0-.009,0-.018,0-.027h0l-.015.013,1.744-2.489-.436,1.807.238.2a9.2,9.2,0,0,1,.75-.959c.9-.888,1.792-1.78,2.741-2.611.561-.491,1.02-.381,1.151.319.223,1.2.285,2.434.4,3.655a4.8,4.8,0,0,1,.038,1.157,18.49,18.49,0,0,1-.487,2.369,20.729,20.729,0,0,1-2.939,5.95c-.631.914-1.152,1.906-1.8,2.81a7.725,7.725,0,0,1-1.245,1.19c-.331.291-.686.557-1.037.824a4.681,4.681,0,0,1-1.014.628c.8-.982,2.1-1.469,2.6-2.7-.045-.08-.089-.161-.134-.242a12.7,12.7,0,0,0-1.672.795c-.637.419-1.157,1.017-1.8,1.418-1.017.632-1.727.2-1.73-1.061l-.5.136c-.033-.181-.066-.358-.1-.548l-.93.718-.17-.139c.654-1.3,1.348-2.584,1.09-4.072.918-.534.918-.534.412-1.523l-.991,1.374a15.333,15.333,0,0,1,4.158-7.691m2.7-3.794.123.1-.291.41-.167-.127.335-.38m1.15.624-.182.142c-.013-.022-.041-.054-.034-.061.043-.058.095-.11.143-.164l.074.083m.075-1.489-.509.786c-.336-.473-.034-.689.509-.786M540.28,643.4l-.028.025.015-.015q.231-.67.466-1.34l.369.18-.823,1.15m-1.958,3,.04,0h.007v0h-.047m-.242.451h0l.027-.018-.024.017m-2.352,2.935a3.407,3.407,0,0,1,1.732-1.956q-.863.981-1.732,1.956m-.095.067h0m.031,0-.012.009.012-.009m-7.435.466c-.052-.04-.129-.069-.145-.12s.037-.114.069-.2c.079.069.158.107.177.164.012.036-.064.1-.1.154m12.949-8.779.06.021-.06.025Zm.156-.963h0l-.007.017.007-.017m.5-1.772.187.088-.275.492-.128-.06.216-.52m.359-3.979c.01.106.02.211.031.317l-.089.015c-.023-.1-.048-.208-.071-.313l.13-.019M542.3,637l.02.059-.046,0Zm-18.469,16.125.023-.05.018.052Zm.45-14.908a78.926,78.926,0,0,0-2.734,11.656c-.253,1.909-.289,3.846-.478,5.765a13.967,13.967,0,0,1-.491,1.954,6.043,6.043,0,0,0,.516.408c2.078,1.4,3.34,1.154,4.725-.914a14.117,14.117,0,0,1,.968-1.495,6.961,6.961,0,0,0,1.669-3.42,3.814,3.814,0,0,1,.506-1,5.524,5.524,0,0,0,1.352.64c2.145.3,4.3.326,6.086-1.127a30.631,30.631,0,0,0,3.4-3.315,24.522,24.522,0,0,0,2.5-3.313c.627-1,.986-2.156,1.58-3.176a11.362,11.362,0,0,0,1.324-7.5c-.295-2.138-1.577-3.023-3.678-2.594-.121.025-.244.04-.366.059l-.022-.088.782-.338a.455.455,0,0,0-.329-.1,2.174,2.174,0,0,0-.3.021,11.214,11.214,0,0,0-8.208,5.347,6.453,6.453,0,0,1-.422.612c-.853,1.108-1.752,2.183-2.544,3.332a6.2,6.2,0,0,0-.4,1.448,4.06,4.06,0,0,1-.491.833c-.058.088-.2.126-.243.217q-.732,1.5-1.441,3.012c-.145.311-.245.644-.378.962q-1.237,2.961-2.478,5.919a2.714,2.714,0,0,1-.256-1.327c.192-1.214.485-2.412.7-3.623.278-1.569.516-3.145.774-4.718a1.232,1.232,0,0,1,.119-.482,4.46,4.46,0,0,0,.716-2.884A.584.584,0,0,1,527,638.5c1-.347.877-1.256.906-1.98a5.472,5.472,0,0,1,.67-2.9,5.6,5.6,0,0,0,.6-1.854c.462-2.266.881-4.539,1.322-6.809.186-.953.382-1.9.579-2.857a8.646,8.646,0,0,1,1.108-3.418,3.932,3.932,0,0,0,.511-1.746c.112-.942.077-1.9.161-2.845a16.164,16.164,0,0,1,.383-1.78c-.963.22-1.72.352-2.451.569a3.233,3.233,0,0,0-2.326,2.552c-.187.812-.325,1.638-.551,2.439-.75,2.657-.974,5.443-1.938,8.044-.922,2.485-.952,5.163-1.751,7.682-.588,1.852-.893,3.792-1.359,5.684-.183.74-.548,1.44-.679,2.186a46.544,46.544,0,0,1-1.352,6.138c-.808,2.55-.63,5.242-.634,7.891a3.327,3.327,0,0,0,.081.528,1.363,1.363,0,0,0,.251-.768c.107-1.64.161-3.285.329-4.917a25.977,25.977,0,0,1,.576-2.837c.5-2.286.924-4.592,1.525-6.851.863-3.244,1.862-6.452,2.787-9.68.227-.792.391-1.6.584-2.4a44.433,44.433,0,0,1-.708,4.582c-.378,1.7-.845,3.386-1.334,5.061" transform="translate(-520.178 -612.32)"/></g><g transform="translate(42.314 65.145)"><path class="a" d="M533.376,645.353c.575-1.084,1.067-2.213,1.591-3.326.109-.231.221-.461.332-.692l-.158-.085-2.755,4.55.138.188c.291-.208.7-.353.852-.636" transform="translate(-532.386 -641.251)"/></g><g transform="translate(42.633 65.162)"><path class="a" d="M533.882,641.27c-.522.039-1,.675-1.142,1.577h.843c.093-.489.2-1.035.3-1.577" transform="translate(-532.74 -641.27)"/></g><g transform="translate(41.157 70.435)"><path class="a" d="M532.529,647.26l-.3-.144q-.564,1.085-1.129,2.169l.43.207,1-2.231" transform="translate(-531.103 -647.116)"/></g><g transform="translate(41.174 67.813)"><path class="a" d="M531.993,644.209l-.871,1.578.218.129c.678-.28.895-.725.653-1.707" transform="translate(-531.122 -644.209)"/></g><g transform="translate(40.473 73.679)"><path class="a" d="M530.345,651.94l.26.161.633-1.236-.3-.152q-.295.614-.591,1.227" transform="translate(-530.345 -650.713)"/></g><g transform="translate(51.498 64.52)"><path class="a" d="M543.02,640.558l-.451,1.03.283.082.168-1.112" transform="translate(-542.569 -640.558)"/></g><g transform="translate(41.299 69.74)"><path class="a" d="M531.483,647.3q.125-.426.251-.852l-.167-.106-.306.893.222.065" transform="translate(-531.261 -646.346)"/></g><g transform="translate(45.995 63.068)"><path class="a" d="M536.953,639.033l-.164-.084c-.107.185-.214.371-.321.556l.207.109.279-.581" transform="translate(-536.468 -638.949)"/></g><g transform="translate(46.084 62.265)"><path class="a" d="M536.659,638.293c.056-.005.107-.061.2-.119-.065-.055-.112-.122-.144-.115a.218.218,0,0,0-.143.108c-.012.026.063.129.091.126" transform="translate(-536.566 -638.059)"/></g><g transform="translate(45.407 64.505)"><path class="a" d="M535.869,640.662a.636.636,0,0,0,.118-.041l-.075-.079c-.032.024-.064.05-.1.076.018.015.038.047.053.044" transform="translate(-535.816 -640.542)"/></g><g transform="translate(45.632 62.88)"><path class="a" d="M536.173,638.818l-.108-.078.024.137.084-.059" transform="translate(-536.065 -638.74)"/></g><g transform="translate(50.868 67.081)"><path class="a" d="M541.87,643.415l.046.031.007-.048Z" transform="translate(-541.87 -643.397)"/></g><g transform="translate(51.949 64.463)"><path class="a" d="M543.123,640.518l-.03-.022h0l-.015,0-.008.057.022-.05.033.016" transform="translate(-543.069 -640.495)"/></g><g transform="translate(57.334 6.288)"><path class="a" d="M560.161,595.611l.012.047c0-.01-.007-.027-.012-.047h0m2.73-2.174.038.058-.019.064a.344.344,0,0,1-.061-.071c0-.008.027-.033.042-.05m1.425-1.15h0l-.012.017.011-.018m4.209-4.547c.005.005,0,.024-.006.037-.006-.019-.012-.038-.018-.056a.089.089,0,0,1,.024.019m.637-.414,0,.047-.043-.026Zm2.26-2.717a.171.171,0,0,1,.053.026s-.01.029-.016.044l-.089-.04.052-.031M549.4,614.875c-.139.988-.244,1.982-.356,2.905l.821.438a4.907,4.907,0,0,1,1.017-3.114l.28.547c2.248-3.56,2.413-7.791,4.153-11.207,5.468,2.342,11.246,3.723,16.437,6.521a1.247,1.247,0,0,1,.759-.16c.693.176.789.105.714-.66l.019.018a13.3,13.3,0,0,0-3.895-3.147c-.955-.55-2.056-.87-2.952-1.5a14.772,14.772,0,0,0-5.484-2.337c-1.119-.234-1.808-1.054-2.964-1.339.452-.4.775-.695,1.11-.977,1.761-1.478,3.518-2.963,5.294-4.424a18.673,18.673,0,0,1,2.078-1.548,24.517,24.517,0,0,0,8.112-7.688,8.377,8.377,0,0,0,1.424-4.313,1.6,1.6,0,0,0-1.114-1.747c-.248-.1-.477-.246-.721-.36-.557-.261-1.116-.514-1.676-.77l-.268.094c.8,1.515-.031,2.553-.787,3.656a17.237,17.237,0,0,0-1.084,2.14l-.033.013c.005-.01.012-.02.018-.029q-.908.908-1.818,1.815l0,0c-1.153,1.114-2.3,2.233-3.462,3.342-1.067,1.021-2.145,2.03-3.217,3.044l.365-.035c.022.063.043.125.066.189l-.668.194c.039-.05.078-.1.118-.148l.082-.167-.136.115c-.054.047-.108.094-.161.142l-1.314,1.2h0l-2.266,1.664-.189-.13c.213-.777.416-1.558.639-2.331.574-1.994,1.178-3.98,1.723-5.983.152-.557.055-1.182.214-1.734.6-2.109,1.3-4.194,1.89-6.307a6.149,6.149,0,0,0,.193-2.054,2.522,2.522,0,0,0-1.542-2.427c-1.251-.526-1.769-.366-2.271.856-.251.61-.666,1.15-.961,1.744-.394.79-.785,1.586-1.1,2.411a1.065,1.065,0,0,0,.514,1.283l1.212-1.48c-.05.281-.06.4-.094.51-.918,3.085-2.077,6.1-2.691,9.275a27.9,27.9,0,0,1-1.113,4.684c-.4,1.048-.425,2.231-1.149,3.181a3.975,3.975,0,0,0-.422,1.41c-.931,3.686-1.885,7.367-2.772,11.064-.287,1.2-.4,2.437-.576,3.66" transform="translate(-549.039 -575.994)"/></g><g transform="translate(70.074 24.388)"><path class="a" d="M563.176,596.075l.011-.012-.022,0Z" transform="translate(-563.165 -596.063)"/></g><g transform="translate(81.199 37.253)"><path class="a" d="M575.518,610.344l0-.007-.014-.011.018.018" transform="translate(-575.5 -610.326)"/></g><g transform="translate(80.369 14.634)"><path class="a" d="M574.713,603.664a6.14,6.14,0,0,0,.712,4.213,3.745,3.745,0,0,0,1.13.758,4.722,4.722,0,0,0,1.8,0c1.58-.274,3.147-.61,4.252-1.956a10.832,10.832,0,0,1,1.713-1.849,16.5,16.5,0,0,0,3.043-3.518c.475-.628,1.018-1.206,1.53-1.807-.053,1.725-.336,3.389-.383,5.059a18.129,18.129,0,0,0,.445,3.329.892.892,0,0,0,.323.483c1.146.919,2.281,1.732,3.934,1.181a1.124,1.124,0,0,0,.771-.909,4.5,4.5,0,0,0-.066-1.427c-.752.725-1.049.383-1.242-.176-.652-1.891-.179-3.783.072-5.659.1-.786.616-1.521.7-2.3a23.108,23.108,0,0,1,2.091-7.688,3.786,3.786,0,0,0,.31-1.366c.026-.428-.153-.94-.678-.843a9.532,9.532,0,0,0-3.27.87,7.812,7.812,0,0,0-3.258,4.022,5.089,5.089,0,0,1-.269.544v.015c-.44.5-.9.992-1.313,1.513a4.442,4.442,0,0,0-.362.721,9.111,9.111,0,0,1-.635,1.142c-.556.76-1.139,1.5-1.74,2.227-.441.531-.935,1.017-1.394,1.534a2.972,2.972,0,0,0-.624.806,3.079,3.079,0,0,1-1.687,1.851,10.555,10.555,0,0,0-1.892,1.4c-.16.123-.309.26-.464.391l-.215-.1c.247-.994.439-2,.752-2.977a36.7,36.7,0,0,1,4.161-8.378,57.294,57.294,0,0,1,4.023-6.342,1.648,1.648,0,0,0,.19-.477l-.161-.154.478-.289c.578-.192,1.165-.36,1.731-.585a1.23,1.23,0,0,1,1.36.269,4.487,4.487,0,0,0,.737.613c.925.492,1.775,1.414,2.974.628l-.016.007c.033-.254.067-.508.128-.981a14.121,14.121,0,0,0-1.84-1.586,3.669,3.669,0,0,0-1.957-.618,11.7,11.7,0,0,0-7.206,2.816c-.341.286-.708.54-1.053.821a5.858,5.858,0,0,0-1.92,2.4,6.7,6.7,0,0,1-.533,1.056,56.823,56.823,0,0,0-3.313,5.491,32.682,32.682,0,0,0-1.868,5.827" transform="translate(-574.579 -585.248)"/></g><g transform="translate(92.964 17.333)"><path class="a" d="M588.544,588.24h0l.018.018Z" transform="translate(-588.544 -588.24)"/></g><g transform="translate(50.616 40.712)"><path class="a" d="M541.6,614.174v-.008l-.01,0Z" transform="translate(-541.591 -614.162)"/></g><g transform="translate(40.645 16.437)"><path class="a" d="M532.407,595.545a2.3,2.3,0,0,0,.431-.456c.593-1.117,1.164-2.245,1.742-3.37a8.774,8.774,0,0,1-.435,1.632,25.943,25.943,0,0,1-1.684,3.21c-.656,1.02-.839,2.231-1.548,3.251a4.972,4.972,0,0,0-.362,2.387,3.876,3.876,0,0,0,1.024,3.282c.215.2.415.424.631.626a2.451,2.451,0,0,0,2.1.682,5.892,5.892,0,0,0,3.993-2.565c1.039-1.38,2.069-2.767,3.1-4.151-.521,3.853-1.4,7.591-.888,11.453.544.166.007.473.081.7.432,1.311,1.007,2.477,2.5,2.9a1.5,1.5,0,0,0,1.644-.216c.485-.523.121-1.085-.207-1.539a2.318,2.318,0,0,1-.439-1.817,5.065,5.065,0,0,0,.026-.741,43.434,43.434,0,0,1,.084-4.393c.252-2.167.828-4.3,1.015-6.469a17.872,17.872,0,0,1,1.619-5.588,31.421,31.421,0,0,0,1.725-5.712,1.168,1.168,0,0,0-.4-.958,2.512,2.512,0,0,0-3.581.79c-.417.784-.747,1.614-1.095,2.432a5.731,5.731,0,0,1-2.209,3.069c-.231.134-.329.507-.478.775-.271.488-.529.982-.8,1.47-.189.341-.384.68-.592,1.01-.279.444-.576.876-.858,1.318-.214.338-.4.692-.623,1.025q-.538.817-1.107,1.615c-.142.2-.329.363-.486.551q-.959,1.154-1.914,2.314l-.282-.112a20.477,20.477,0,0,1,.342-2.875c.348-1.348,1.04-2.625,1.267-3.984a10.052,10.052,0,0,1,1.394-3.379,2.836,2.836,0,0,0,.523-1.576c-.076-.539-.517-1.371-.9-1.436a3.712,3.712,0,0,1-1.123-.5c-.34-.166-.527-.1-.735.3-.865,1.645-1.8,3.252-2.709,4.874l.212.178" transform="translate(-530.535 -587.247)"/></g><g transform="translate(70.059 24.39)"><path class="a" d="M563.164,596.065l-.016.031.026-.022Z" transform="translate(-563.148 -596.065)"/></g><g transform="translate(26.7 1.962)"><path class="a" d="M516.029,571.985c.646.17.721-.115.594-.787-.531.315-1.211.094-1.548.822a3.763,3.763,0,0,1,.954-.034" transform="translate(-515.075 -571.198)"/></g><g transform="translate(18.608 7.826)"><path class="a" d="M506.153,578.047l.649-.157c-.013-.063-.027-.127-.041-.19l-.658.115c.017.078.033.155.051.233" transform="translate(-506.103 -577.7)"/></g><g transform="translate(20.707 7.254)"><path class="a" d="M508.485,577.445l.662-.182-.051-.2-.666.167c.018.071.037.142.055.212" transform="translate(-508.43 -577.066)"/></g><g transform="translate(29.416 2.088)"><path class="a" d="M518.608,571.522l-.063-.184-.459.19.051.142.471-.149" transform="translate(-518.086 -571.338)"/></g><g transform="translate(2.547 38.645)"><path class="a" d="M488.333,611.87l-.038.31.125.017c.013-.1.025-.207.037-.31l-.124-.017" transform="translate(-488.295 -611.87)"/></g><g transform="translate(19.95 7.626)"><path class="a" d="M507.591,577.531l.042.051.1-.056c-.014-.017-.033-.051-.041-.048a.678.678,0,0,0-.1.053" transform="translate(-507.591 -577.478)"/></g><g transform="translate(13.755 28.9)"><path class="a" d="M500.722,601.112l.047,0-.018-.051Z" transform="translate(-500.722 -601.066)"/></g><path class="a" d="M507.265,595.447l.005-.041.041.027Zm-1.175.906c-.013-.015-.036-.033-.034-.048s.028-.026.044-.039c.012.016.035.033.033.048s-.028.026-.043.039m-.992-.161,0-.038.047.023Zm-13.309.118-.15-.043.364-1.3.146.1c-.12.418-.241.833-.361,1.25m-.581,2.019a.8.8,0,0,1-.155-.049,1.326,1.326,0,0,1,.061-.23l.152.038c-.02.08-.039.161-.059.241m-.171.893c.005-.051.01-.1.014-.155l.088.045-.1.11m.027-2.178.038.025-.043.015ZM490.27,609.8c.008-.02.015-.041.023-.06.015,0,.041,0,.045.005a.191.191,0,0,1,.014.062l-.081-.007m-.408-4.253v-.2l.065-.009.038.216-.1,0m-.447-.3.024-.036.014.042Zm-1.033,4.186-.1-.053c.047-.115.094-.231.14-.346l.174.1-.211.3m-.238,1.016-.1-.007c.007-.1.013-.207.021-.312l.106.008c-.008.1-.016.207-.025.311m-.389,2.154-.116-.034.138-.422.1.029-.119.427m17.863-37.165.045.088-.284.151-.048-.092.287-.147m.134-2.118.166.224-.437.293a1.442,1.442,0,0,1-.134-.224,4.549,4.549,0,0,1,.406-.292m.95-.214.427.4-.158.173-.44-.388.171-.19m2.279-.49.121.41-1.034.288-.1-.327,1.015-.371m.618-.186.5.046c-.009.07-.019.141-.028.211l-.492-.086c.008-.057.015-.114.023-.171m13.163-2.152-.025.032-.013-.039ZM508.934,595.9c.011.044.023.087.034.132-.028.025-.055.05-.081.075-.023-.053-.046-.107-.069-.161l.115-.046m-1.621.711c.12-.325.226-.611.344-.933h.692l-.3.49.3-.225c.085.286.169.573.253.859l.3-.034c.169-.264.522-.58.466-.781a5.492,5.492,0,0,0-.722-1.245,3.079,3.079,0,0,1-.314.243.61.61,0,0,1-.31.12,7.23,7.23,0,0,0-4.457,1.333,2.525,2.525,0,0,1-.711.3,5.759,5.759,0,0,0-1.658.38,5.549,5.549,0,0,1-3.043,1.047,15.648,15.648,0,0,0-3.675.962c.145-.677.247-1.33.429-1.961.287-.995.634-1.973.945-2.96.516-1.634.972-3.29,1.549-4.9.521-1.455,1.212-2.847,1.752-4.3.576-1.545,1.042-3.13,1.6-4.685.417-1.168.7-2.458,2.12-2.932l-1.032.128,1.647-1.2a5.186,5.186,0,0,0,1.409-.023,5.7,5.7,0,0,0,1.862-.883c.924-.759,2.083-.333,3-.891.088.405.152.695.216.985l.28.016c-.483-.932.073-1.252.76-1.405.853-.191,1.728-.278,2.586-.452,1.2-.244,2.385-.6,3.6-.773.912-.133,1.9.161,2.69-.555.63.505,1.257.035,1.887-.008.29-.02.584-.016.873-.057.313-.043.62-.166.933-.179.453-.018.907.04,1.362.051a11.124,11.124,0,0,1,2.143.069,2.2,2.2,0,0,0,1.541-.065,3.9,3.9,0,0,0,.73-.619c-.444-.226-.046-.985-.851-1.109a5.092,5.092,0,0,1-2.33-1.017,1.68,1.68,0,0,0-1.7-.277c-1.073.268-2.157.494-3.233.757a7.274,7.274,0,0,0-.851.328l.771.674a2.7,2.7,0,0,1-2.82.354l1.566-.969-.106-.176-1.422.447-.934,1.14-.775-.574.772-.339c-.01-.048-.021-.1-.031-.145l-1.662.155c.506.737-.144.991-.445,1.3-.148.152-.615-.005-.937-.022a12.906,12.906,0,0,1-1.765.3c-.061.007-.134-.017-.184.007-.888.433-.888.434-1.6-.051l.882-.57c-.029-.053-.058-.107-.088-.161-.433.223-1.162-.446-1.292.326-.581,0-1.1.018-1.614,0-.7-.032-1.188.522-1.954.506a16.715,16.715,0,0,0-5.763,1.258c-.279.1-.607.283-.849.212a3.712,3.712,0,0,0-2.344.454,6.008,6.008,0,0,1-.775.2c-.578.11-1.164.181-1.738.312-.887.2-1.76.469-2.648.66-2.094.451-4.175,1.109-6.334.225-.419-.171-.974.421-.8.874a3.448,3.448,0,0,0,.974,1.575A9.755,9.755,0,0,0,492,579.823a21.081,21.081,0,0,0,3.359-.423c.318-.042.64-.043,1.041-.069-.26.62-.484,1.078-.646,1.557-.258.769-.442,1.565-.713,2.329-.925,2.606-1.879,5.2-2.813,7.8-.149.416-.27.844-.378,1.273-.408,1.618-.772,3.248-1.218,4.855-.274.992-.692,1.944-.995,2.929-.2.646-.492,1.163-1.229,1.19-1.327.048-1.864.981-2.29,2.017a3.367,3.367,0,0,0-.015,1.044,14.112,14.112,0,0,1,1.378-.854.994.994,0,0,1,.79-.051c.2.117.291.463.35.726a3.878,3.878,0,0,1,.012.813l.176.081.852-1.08c-.122,1.41-1.765,1.909-1.4,3.406l1.06-.872-.544,1.791c-.164-.057-.3-.155-.419-.137-.655.1-.8.653-.921,1.165q-.867,3.714-1.689,7.438a7,7,0,0,0,.172,3.6,3.68,3.68,0,0,0,3.435,2.98c.764.023.976-.252.848-.988a8.256,8.256,0,0,1-.232-2.038c.143-1.739.345-3.476.618-5.2a26.688,26.688,0,0,1,1.423-5.888,12.474,12.474,0,0,0,.777-3.672,3.579,3.579,0,0,1,2.717-3.464,19.886,19.886,0,0,0,2.439-.879,24.944,24.944,0,0,1,5.866-2.353c1.394-.272,2.654-1.234,4.149-1.972l-.642-.264" transform="translate(-485.471 -569.023)"/><g transform="translate(22.875 22.186)"><path class="a" d="M514.746,613.277c-.226-.245-.141-.78-.185-1.19a2,2,0,0,1,.027-.779c.074-.546-1.028-2.488-.9-3.02a6.28,6.28,0,0,1,.535-1.5,10.553,10.553,0,0,0,.988-3.815,8.9,8.9,0,0,1,1.3-2.584c2.695-3.605,5.268-3.484,5.558-2.9.489,1.274.878,2.336,1.311,3.38.111.268.016.86.354,1.007.013.073.053.156.033.218a34.247,34.247,0,0,1-2.682,6.671,10.589,10.589,0,0,1-5.205,4.53c-.342.134-.95.177-1.131-.02m-1.445-10.3-.187-.107.528-.649-.341.757m-.637,6.832-.111-.044.288-.767.176.074Zm1.323-3.591h.032l-.036.013,0-.013m.481-5.018c.028.013.035.071.052.109-.033.008-.077.033-.1.021a.386.386,0,0,1-.078-.1c.042-.011.09-.04.122-.026m-.031-1.138-.011.031h0l.014-.031m8.316-2.764c.106.307.214.615.32.923l-.088.028q-.222-.426-.445-.851l.213-.1m.644-1.316c-.027.158-.041.24-.055.322a1.151,1.151,0,0,1-.1-.177c0-.014.056-.054.157-.145m.134,3.471,0,.007H523.5Zm.426,1.42-.271.052q-.07-.71-.14-1.421.206.683.41,1.368m-2.236,8.581c-.13.151-.425.159-.644.234,1.217-1.83,1.454-4.176,3.186-5.487a9.08,9.08,0,0,1-2.542,5.254m-9.452-.556h0m-.231.743-.179-.075.356-.545q-.088.31-.178.62m9.036,4.076a14.835,14.835,0,0,0,4.829-7.91,17.458,17.458,0,0,0,.994-3.465,5.294,5.294,0,0,0-.2-1.685l-.187.087a9.852,9.852,0,0,0-.332-2.322c-.233-.969-.418-1.592-.521-2-.381-1.514-.934-2.748-2.6-2.745-1.4,0-3.7-.639-7.106,2.467-.356.324-2,2.525-2.121,2.714-.464.744-.961,1.742-1.439,2.478a15.679,15.679,0,0,0-1.349,3.817c-.5,1.466.073,4.271,0,5.831a4.594,4.594,0,0,0,2.728,4,7.717,7.717,0,0,0,7.3-1.265" transform="translate(-510.834 -593.621)"/></g><g transform="translate(23.84 25.451)"><path class="a" d="M512.8,597.621l-.9-.38c.064.68.371.547.9.38" transform="translate(-511.904 -597.241)"/></g><g transform="translate(24.528 25.379)"><path class="a" d="M512.73,597.163c-.016-.007-.064.015-.064.019,0,.032.02.092.027.091a.667.667,0,0,0,.137-.036.578.578,0,0,0-.1-.074" transform="translate(-512.666 -597.161)"/></g><g transform="translate(85.691 78.953)"><path class="a" d="M580.552,656.561c-.143.061-.028.179-.04.149.092-.01.032-.124.04-.149" transform="translate(-580.48 -656.561)"/></g><g transform="translate(84.147 79.66)"><path class="a" d="M578.767,657.516l.174-.116.014-.055Z" transform="translate(-578.767 -657.345)"/></g><g transform="translate(82.947 79.745)"><path class="a" d="M578.189,657.593l.051.038.071-.192a3.633,3.633,0,0,1-.874.285c.178.177.49-.148.751-.131" transform="translate(-577.438 -657.439)"/></g><g transform="translate(82.103 79.723)"><path class="a" d="M576.686,657.428a.262.262,0,0,1-.036-.014,1.138,1.138,0,0,1-.141.028c.064.069-.142.106.177-.014" transform="translate(-576.502 -657.415)"/></g><g transform="translate(82.223 79.692)"><path class="a" d="M576.663,657.411c.144-.039-.11-.046,0,0" transform="translate(-576.634 -657.38)"/></g><g transform="translate(81.479 79.749)"><path class="a" d="M575.925,657.618l.173-.115c-.051-.039-.223-.01-.168-.06-.186.085-.134.123-.005.175" transform="translate(-575.809 -657.443)"/></g><g transform="translate(81.449 80.054)"><path class="a" d="M575.777,657.843l.091-.053c-.022-.016-.05-.017-.091.053" transform="translate(-575.777 -657.781)"/></g><g transform="translate(81.541 79.951)"><path class="a" d="M575.969,657.734c0,.065.025,0,.1-.067l-.194.112c.035.027.053.094.09-.045" transform="translate(-575.879 -657.667)"/></g><g transform="translate(81.861 79.912)"><path class="a" d="M576.233,657.667c.117.021.262.017.088.133.358-.113.27-.245-.088-.133" transform="translate(-576.233 -657.624)"/></g><g transform="translate(82.925 80.19)"><path class="a" d="M577.415,658l.157.028.107-.1c-.053.049-.289.007-.264.07" transform="translate(-577.413 -657.932)"/></g><g transform="translate(80.382 80.09)"><path class="a" d="M574.594,657.821c0,.047.092.1.119.155l.129-.082c-.079-.013-.223-.01-.248-.073" transform="translate(-574.594 -657.821)"/></g><g transform="translate(80.308 80.246)"><path class="a" d="M574.7,657.994l-.193.125c.19-.035.216-.078.193-.125" transform="translate(-574.512 -657.994)"/></g><g transform="translate(81.403 80.114)"><path class="a" d="M575.725,658.1l.066-.017.309-.239Z" transform="translate(-575.725 -657.848)"/></g><g transform="translate(79.497 80.14)"><path class="a" d="M573.612,658.08l.081-.073.095-.13Z" transform="translate(-573.612 -657.877)"/></g><g transform="translate(78.631 80.221)"><path class="a" d="M573.07,658.155c.068-.1-.154-.115-.073-.189a.982.982,0,0,0-.344.241.584.584,0,0,1,.418-.052" transform="translate(-572.652 -657.967)"/></g><g transform="translate(78.467 80.462)"><path class="a" d="M572.47,658.372a1.137,1.137,0,0,0,.165-.138.608.608,0,0,0-.165.138" transform="translate(-572.47 -658.234)"/></g><g transform="translate(79.75 80.343)"><path class="a" d="M573.893,658.1l.112.1.083-.017a.24.24,0,0,0-.195-.088" transform="translate(-573.893 -658.102)"/></g><g transform="translate(79.682 80.447)"><path class="a" d="M574,658.221l0,0-.18.034.184-.031" transform="translate(-573.817 -658.217)"/></g><g transform="translate(79.946 80.426)"><path class="a" d="M574.131,658.194l-.021,0c.011.01.016.013.021,0" transform="translate(-574.11 -658.194)"/></g><g transform="translate(80.69 80.368)"><path class="a" d="M575.062,658.41c.068-.106-.088-.133.074-.28-.108.1-.348.232-.074.28" transform="translate(-574.935 -658.13)"/></g><g transform="translate(80.105 80.415)"><path class="a" d="M574.507,658.182l-.22.142.23-.023c-.012-.032-.063-.069-.01-.118" transform="translate(-574.287 -658.182)"/></g><g transform="translate(80.005 80.557)"><path class="a" d="M574.191,658.348l-.015.056.1-.064Z" transform="translate(-574.176 -658.339)"/></g><g transform="translate(78.571 80.619)"><path class="a" d="M572.892,658.417a.763.763,0,0,1-.306.141,2.042,2.042,0,0,0,.394-.051c.009-.042.048-.125-.089-.089" transform="translate(-572.586 -658.408)"/></g><g transform="translate(79.34 80.552)"><path class="a" d="M573.458,658.334l-.02.012c.015.008.027.009.02-.012" transform="translate(-573.438 -658.334)"/></g><g transform="translate(77.396 81.034)"><path class="a" d="M571.307,658.89v-.023l-.023,0,.024.018" transform="translate(-571.283 -658.868)"/></g><g transform="translate(78.964 80.643)"><path class="a" d="M573.247,658.434a1.509,1.509,0,0,1-.225.075c0,.019,0,.031.027.018a.236.236,0,0,0,.2-.093" transform="translate(-573.021 -658.434)"/></g><g transform="translate(78.153 80.719)"><path class="a" d="M572.122,658.533a1.228,1.228,0,0,0,.182.03c-.058-.028-.172-.066-.182-.03" transform="translate(-572.122 -658.518)"/></g><g transform="translate(79.286 80.519)"><path class="a" d="M573.392,658.316l.014-.009c-.038-.019-.031-.007-.014.009" transform="translate(-573.378 -658.297)"/></g><g transform="translate(79.19 80.538)"><path class="a" d="M573.382,658.318a.576.576,0,0,0-.11.1.877.877,0,0,0,.151-.078.18.18,0,0,1-.041-.027" transform="translate(-573.272 -658.318)"/></g><g transform="translate(76.96 81.057)"><path class="a" d="M571.07,659.109c.092.045.525.033.363.18-.279.126-.249.014-.406-.014.155.115-.323.294-.21.49l.239-.133c.013.031-.068.105.01.119-.01-.119.218-.283.465-.21.194-.135-.035-.481-.271-.648,0,.051.015.1-.189.216" transform="translate(-570.8 -658.893)"/></g><g transform="translate(77.42 80.853)"><path class="a" d="M571.309,658.848l.451-.088-.027.024.088-.035a.859.859,0,0,1-.352-.083c-.138.091-.159.141-.161.181" transform="translate(-571.309 -658.667)"/></g><g transform="translate(77.932 80.763)"><path class="a" d="M572.292,658.573h0v0c.023.012.031.02.008.015l-.009,0a.12.12,0,0,1-.008.051c-.131,0-.027-.028.008-.051a.13.13,0,0,0,0-.02h0l-.415.168a1.73,1.73,0,0,0,.408-.095c-.041.142-.247.244-.082.349.265-.07.162-.147.309-.238-.423.13.107-.1-.22-.1a1.329,1.329,0,0,1,.225-.087,1.84,1.84,0,0,1-.236-.005l.012.005" transform="translate(-571.877 -658.568)"/></g><g transform="translate(80.611 80.943)"><path class="a" d="M574.886,658.793a.037.037,0,0,1-.021-.026c-.024.022-.032.035.021.026" transform="translate(-574.847 -658.767)"/></g><g transform="translate(80.193 80.705)"><path class="a" d="M574.808,658.586l-.026.024a.984.984,0,0,1-.4-.107.841.841,0,0,0,.262.23.183.183,0,0,1,.146-.091c.1.017.014.06.028.1.054-.047.194-.139-.013-.155" transform="translate(-574.384 -658.503)"/></g><g transform="translate(80.172 80.68)"><path class="a" d="M574.382,658.5c-.006-.008-.013-.015-.019-.024s0,.014.019.024" transform="translate(-574.361 -658.476)"/></g><g transform="translate(79.048 80.922)"><path class="a" d="M573.114,658.888l.208.066-.024-.062c.21-.022.147-.092.161-.148Z" transform="translate(-573.114 -658.744)"/></g><g transform="translate(77.193 80.843)"><path class="a" d="M571.058,658.89l.147-.091.017-.142Z" transform="translate(-571.058 -658.656)"/></g><g transform="translate(76.761 80.991)"><path class="a" d="M570.578,658.917l.117.021-.01-.118Z" transform="translate(-570.578 -658.82)"/></g><g transform="translate(65.071 83.637)"><path class="a" d="M557.966,661.879c-.18-.071-.391-.2-.341-.073l.077.115a.448.448,0,0,1,.264-.042" transform="translate(-557.618 -661.754)"/></g><g transform="translate(57.773 86.293)"><path class="a" d="M549.526,664.819l.054.026.072-.146-.126.12" transform="translate(-549.526 -664.699)"/></g><g transform="translate(71.76 82.244)"><path class="a" d="M565.383,660.222a1.2,1.2,0,0,0-.349,0c.177.035.332.114.349,0" transform="translate(-565.034 -660.209)"/></g><g transform="translate(50.857 87.55)"><path class="a" d="M541.929,666.093c-.059.041-.079.073-.07.1.06-.04.091-.073.07-.1" transform="translate(-541.858 -666.093)"/></g><g transform="translate(71.377 82.242)"><path class="a" d="M564.609,660.311c.026.007.051.008.078.014a1.07,1.07,0,0,1,.306-.1.382.382,0,0,0-.383.088" transform="translate(-564.609 -660.207)"/></g><g transform="translate(27.438 95.034)"><path class="a" d="M516.065,674.39a.476.476,0,0,0-.172.071,1.433,1.433,0,0,1,.172-.071" transform="translate(-515.893 -674.39)"/></g><g transform="translate(74.987 81.468)"><path class="a" d="M568.612,659.368c.1-.031.013-.017,0,0" transform="translate(-568.612 -659.35)"/></g><g transform="translate(75.014 81.502)"><path class="a" d="M568.777,659.4a.644.644,0,0,0-.135-.008.781.781,0,0,0,.135.008" transform="translate(-568.642 -659.386)"/></g><g transform="translate(75.115 81.426)"><path class="a" d="M568.754,659.332l.089-.008c.008-.023-.006-.034-.089.008" transform="translate(-568.754 -659.303)"/></g><g transform="translate(74.851 81.487)"><path class="a" d="M568.6,659.37l-.136.039a.758.758,0,0,1,.163-.024c-.022,0-.032-.009-.027-.014" transform="translate(-568.461 -659.37)"/></g><g transform="translate(75.791 81.197)"><path class="a" d="M569.5,659.126a.338.338,0,0,1,.2,0c-.011-.027-.049-.059-.019-.078Z" transform="translate(-569.503 -659.049)"/></g><g transform="translate(77.985 81.519)"><path class="a" d="M572.013,659.511c.027-.024.066-.017.093-.042l-.023-.063c-.133.035-.214.109-.07.1" transform="translate(-571.936 -659.406)"/></g><g transform="translate(74.542 81.499)"><path class="a" d="M568.322,659.421c.044-.168-.432.291-.061.122.078.014.01-.161.061-.122" transform="translate(-568.118 -659.383)"/></g><g transform="translate(26.461 95.203)"><path class="a" d="M514.809,674.587l.159.052.056-.061Z" transform="translate(-514.809 -674.578)"/></g><g transform="translate(26.212 95.381)"><path class="a" d="M514.7,674.941l-.111-.166-.057.206c.041-.023.12-.068.168-.04" transform="translate(-514.533 -674.775)"/></g><g transform="translate(19.449 81.139)"><path class="a" d="M561.2,660.049l-.152.025a.507.507,0,0,1,.5-.189.308.308,0,0,1,.079.045,3.275,3.275,0,0,1-.427.119m.319-.354-.006.009c-.174-.017-.112-.009.006-.009m-5.464,1.782a.513.513,0,0,1,.006-.223c.023,0,.222.034.41.076l-.417.147m-1.71.621-.564.206a1.48,1.48,0,0,1,.5-.662l.1.078.294-.182a5.281,5.281,0,0,1-.331.561m-.975.354c-.1.037-.208.075-.313.111a.5.5,0,0,1,.333-.215.264.264,0,0,0-.02.1m-1.282.446-.042.014.071-.087a.1.1,0,0,0-.029.073m-.5.167c.02-.09.07-.177.151-.19a.407.407,0,0,0,.021.135l-.172.056m-.109-.672c-.011-.031-.049-.038.011-.054a.224.224,0,0,0-.011.054m-.417.838c-.038-.068-.055-.136-.01-.156.1.051.154.079.2.1l-.189.059m-.407.121-.118-.192-.057.243-.247.069.493-.849c-.014.165.184.442.167.659l-.238.07m-.505.142q-.28.076-.557.142c.3-.1.545-.234.548-.371a1.263,1.263,0,0,1,.009.228m-1.66.353-.179.061-.059.012a.22.22,0,0,1,.275-.117c-.065.019-.1.014-.117.069.115-.11.431-.144.461-.078a.951.951,0,0,0-.381.054m-.594.146a1.127,1.127,0,0,0,.262-.116.153.153,0,0,1,.012.059l-.273.057m-1.26.258a2.1,2.1,0,0,1,.731-.514c-.09.157-.008.23.043.355-.259.052-.517.1-.775.159m-.662.139-.17.036a.5.5,0,0,1-.06-.012.419.419,0,0,1,.236-.031l-.007.006m-.381-.029c-.058-.024-.115-.05-.172-.077a.95.95,0,0,0-.09.243l-.247.052a1.409,1.409,0,0,1,.283-.321,2.32,2.32,0,0,0-.231-.1l.37-.2c.055.018.032.091-.013.185.023-.021.044-.043.06-.062.16.031.114.156.04.285m-19.4,4.825.075.015c-.132.086-.1.037-.075-.015m-11.914,4.2h0Zm49.69-14.184a.666.666,0,0,1,.31-.1c-.167-.146-.059.035-.3-.124.216.2-.6.158-.419.323h0c-.225-.138-.344,0-.634-.13.022.056.119.09-.119.115a.249.249,0,0,1-.039.063h-.016l.014,0c-.008.011-.009.013.005,0a.275.275,0,0,1,.139.062.36.36,0,0,1-.142.127l-.454.151c.014-.022.022-.047-.014-.064l-.123.111-.05.017c-.076-.108-.39-.122-.1-.264l-.292.061a.866.866,0,0,0-.565.08c-.144,0-.313.224-.217.095l-.438.186-.012-.031c-.455.087-.878.429-1.448.313a1.417,1.417,0,0,1-.555.166l-.076-.1c-.186.084-.612.022-.668.159-.281-.254-.961.151-1.317.177l.022.15a3.247,3.247,0,0,0-.733.267l.049.125c-.227.165-.671.057-1.068.162.015-.056.12-.066.2-.052-.547-.183-.957.445-1.44.331a.3.3,0,0,1-.262.059.073.073,0,0,0,.025-.013.383.383,0,0,0-.045.008c-.053-.011-.108-.025-.166-.034a.551.551,0,0,0,.142.041,1.6,1.6,0,0,0-.321.128l-.086-.127a.164.164,0,0,0-.028.011c-.134-.024-.081.088.008.178a.672.672,0,0,0-.143.122c-.152-.2-.307.151-.5-.058-.051.125-.522.217-.6.437a.569.569,0,0,0-.393.106l-.1-.163-.244.307c-.208-.066-.3-.112-.151-.289-.389.31-.336.16-.66.455l-.009-.119c-.133.035-.308.238-.411.161-.352-.158-1.479.338-2.294.326.234.3-.394-.06-.358.207-.064-.068-.182-.085-.077-.186-.368.179-.616.025-.828.315-.065-.068.053-.138,0-.175-.027.025-.107.1-.159.064s.04-.081.092-.132c-.393.116-.37.372-.339.608-.229-.056-.326-.015-.432.173-.089-.057-.226-.1.012-.2-.141.024-.876.111-.84.3-.056-.035-.2.038-.228.069a5.171,5.171,0,0,0-.646.161l.093.007c-.061.254-.241.117-.48.209v-.024c-.606-.009-.223.14-.827.108l.067.13c.029.31-.538-.041-.831.161l.138.047c-.148.149-.6-.269-.789-.257-.045-.015.05-.058.1-.092-.511-.048-.011.2-.344.333-.09-.08.014-.27-.223-.225-.138-.048-.586.5-.954.4.091.056.18.111.036.212-.237.1-.742-.1-.9.2-.037-.012-.054-.028-.06-.046-.171.113-.581.272-.658.432-.307-.425-1.1.563-1.218.124l-.568.189,0-.049a.759.759,0,0,0-.574.362c-.094,0-.043-.063-.043-.088a1.279,1.279,0,0,0-1,.453l-.089-.128c-.1.118-.842,0-1.318.328a.1.1,0,0,1,.039-.081c-.541.343-1.534.032-1.594.612l-.352.245c.244-.054.255,0,.225.071l-.28.078c-.046-.227-.652.122-.692-.056-.988.314-2,.469-2.929.749l.172.174-.327.089c-.1-.023-.165-.127.068-.19-.158-.08-.355.219-.347.266-.477.06.1-.3-.041-.258l-.183.075.05.011c-.125.133-.111.227-.391.306-.187.014-.13-.1-.2-.085,0-.015-.03-.014-.107.027l-.412.113.215.112c-.143.128-.351.116-.184.214l-.012,0c-.418-.123-1.5.4-1.687.374a1.688,1.688,0,0,1-.775.366.107.107,0,0,1,.036.013l-.2.062c-.163-.091-.524.116-.76-.039.231.107-.59.268-.418.415l-.06.02c-.034-.043,0-.131-.133-.153-.477.324-1.192.29-1.825.562.006.052.141.091.026.213l-.427-.131c-.12.068-.021.326-.313.234.047.031.117.077.037.122a8.793,8.793,0,0,0-1.952.618,5.622,5.622,0,0,1-2.019.474c.208.034.1.085-.036.135.081-.006.053.088.069.154l-.085.03-.508,0c-.03.206-.5.217-.559.378q-3.459,1.25-6.881,2.6c-.932.369,1.678,4.881,2.55,4.474,4.891-2.288,9.79-4.554,14.859-6.422,5.1-1.878,10.268-3.57,15.408-5.329l7.286-2.493c1.332-.286,8.949-3.58,12.947-5.137a.353.353,0,0,0,.135-.022.123.123,0,0,1,.043-.046c.218-.085.425-.164.618-.236l0,.02.038-.035.335-.123c.948-.344,3.438-.953,3.316-1.413-.046-.177-.374-.171-.816-.078" transform="translate(-507.035 -658.984)"/></g><g transform="translate(88.207 75.603)"><path class="a" d="M587.3,652.875c-1.978,1.364-3.627,5.1-4.027,7.31-.085.467.632.668.718.2a12.015,12.015,0,0,1,2.617-5.623c.306-.364,1.087-2.157.692-1.885" transform="translate(-583.269 -652.847)"/></g></svg>