<svg xmlns="http://www.w3.org/2000/svg" width="110.423" height="102.565" viewBox="0 0 110.423 102.565"><defs><style>.a{fill:#426168;}</style></defs><g transform="translate(-144 -18)"><g transform="translate(144 18)"><g transform="translate(79.072 44.953)"><path class="a" d="M592.809,634.232l.078-.072c0,.032,0,.065,0,.1l-.083-.025m-.69,3.457-.114-.092.266-.348.141.116-.294.323m-.177,1.112a1.053,1.053,0,0,1-.06-.123c0-.006.036-.027.056-.041.018.038.036.075.056.118l-.052.046m-.056.517-.105.026a.365.365,0,0,1-.005-.065c.039-.01.078-.013.118-.02,0,.02-.005.04-.007.059m-3.48,15.51-.085-.061c.052-.09.105-.179.158-.268l.118.1-.19.226m-11.78-24.051.03-.042.011.053Zm-.277.635c-.015-.017-.046-.039-.042-.051a.7.7,0,0,1,.052-.117l.048.051c-.019.04-.039.078-.058.117m-1.105,2.735-.111-.047.15-.333.1.039c-.045.114-.089.228-.134.341m-.96,3.843-.023-.048h.049Zm2.962-8.645c.008.019.022.038.02.055s-.022.031-.033.046c.005-.033.009-.067.013-.1m.428-.636.016.039-.04,0Zm.659-1.461c-.049.1-.1.192-.148.287l-.084-.067.232-.221m.276-.514c-.026.04-.053.08-.079.12.006-.05.013-.1.02-.148l.059.028m24.859,11.993a15.109,15.109,0,0,0-2.756.916,10.623,10.623,0,0,0-1.325,1.031q-2.214,1.473-4.468,2.889a7.018,7.018,0,0,1-1.09.44,11.1,11.1,0,0,0,.376-1.173c.271-1.42.579-2.836.762-4.268a29.417,29.417,0,0,1,1.368-5.708c1.262-3.737,2.266-7.568,4.125-11.082a2.669,2.669,0,0,0,.2-.631c.248-1.046-.33-1.463-1.349-1.517-.6-.032-1.207.124-1.809.113a2.46,2.46,0,0,0-2.4,1.6l.051.057.591-.448.151.14a17.639,17.639,0,0,1-1.232,1.705c-1.873,2.049-3.36,4.4-5.151,6.519-1.762,2.086-3.12,4.508-4.746,6.717a21.292,21.292,0,0,1-2.417,2.518c-.3.289-.73.438-1.043.715a28.71,28.71,0,0,1-2.285,2.1c-1.291.911-1.722.639-1.827-.919a11.74,11.74,0,0,1,1.2-5.444c1.279-2.988,2.624-5.948,3.943-8.92.428-.965.808-1.956,1.307-2.884.633-1.176,1.7-2.211.909-3.756l-.623.223c-.127-.656-.45-.857-.971-.644l.008.006-.01,0c-.1.043-.259.057-.306.135-1.532,2.521-3.088,5.029-4.559,7.586-.585,1.017-.911,2.182-1.481,3.211a9.017,9.017,0,0,1-1.339,2.5c-.37.36-.338,1.129-.5,1.71a19.3,19.3,0,0,1-.886,3,9.341,9.341,0,0,0-.617,3.259,2.564,2.564,0,0,0,1.028,2.2,4.5,4.5,0,0,0,2.632,1.073,8.267,8.267,0,0,0,7-2.737c1.5-1.6,3.376-2.858,4.376-4.945a28.212,28.212,0,0,1,2.119-3.048c.866-1.319,1.662-2.685,2.513-4.014a6.609,6.609,0,0,1,.8-.839l.066.694-.013-.012c.358.513-.141.819-.294,1.207l-.015,0q-.444,2.453-.888,4.907l.019-.015c0,.057,0,.115,0,.171l-.019-.017a8.427,8.427,0,0,1,.111,1.223c-.01.218-.234.623-.3.611-.752-.131-.612.476-.7.836a16.175,16.175,0,0,0-.306,1.883c-.013.113.173.249.271.379a8.6,8.6,0,0,0-.838,3.762q-.382,1.771-.764,3.544l-.13-.024c.017-.159.033-.319.05-.479l-.016.012c-.235.338-.484.668-.7,1.016a.836.836,0,0,0,.115,1.235c0-.014.006-.028.009-.042a.236.236,0,0,0,0,.028,11.98,11.98,0,0,0-.719,1.045c-.151.275-.164.626-.321.894-.392.667-.836,1.3-1.249,1.956a10.435,10.435,0,0,0-.857,1.443,9.174,9.174,0,0,1-1.2,2.381,3.3,3.3,0,0,0-.376,1.139,2.7,2.7,0,0,1-1.626,1.878l2.14.985h1.485a12.418,12.418,0,0,0,1.484-.792,9.232,9.232,0,0,0,3.6-5.06,52.6,52.6,0,0,0,1.647-7.325,1.037,1.037,0,0,1,.287-.567,39.578,39.578,0,0,1,4.237-3.794c1.82-1.248,3.879-2.147,5.811-3.24.365-.207.9-.643.867-.921-.075-.685-.782-.4-1.143-.321" transform="translate(-573.259 -618.931)"/></g><g transform="translate(57.61 50.137)"><path class="a" d="M570.65,629.556c.024-.426-.154-.937-.682-.839a9.572,9.572,0,0,0-3.263.87,7.807,7.807,0,0,0-3.251,4.015,5.068,5.068,0,0,1-.269.543l0,.015c-.44.5-.9.991-1.311,1.51a4.373,4.373,0,0,0-.361.72,9.084,9.084,0,0,1-.635,1.14c-.554.758-1.136,1.5-1.737,2.223-.44.531-.935,1.017-1.392,1.533a2.973,2.973,0,0,0-.624.8,3.067,3.067,0,0,1-1.684,1.848,10.627,10.627,0,0,0-1.891,1.4c-.159.123-.309.26-.462.391l-.215-.1c.247-.993.439-2,.752-2.973a36.665,36.665,0,0,1,4.155-8.367,57.166,57.166,0,0,1,4.017-6.334,1.635,1.635,0,0,0,.19-.476l-.161-.155.478-.288c.577-.192,1.164-.359,1.729-.585a1.226,1.226,0,0,1,1.358.268,4.37,4.37,0,0,0,.737.613c.924.491,1.771,1.412,2.968.626l-.015.008c.033-.254.066-.508.127-.975a19.9,19.9,0,0,0-1.773-1.556,3.626,3.626,0,0,0-1.667-.726,10.448,10.448,0,0,0-5.231,1.324,16.444,16.444,0,0,0-4.252,3.291,18.266,18.266,0,0,0-2.038,3.025,29.405,29.405,0,0,0-4.367,9.023,7.682,7.682,0,0,0-.095,4.809c.75,1.948,1.353,2.515,3.57,1.931,1.211-.318,2.538-.335,3.491-1.39,1.733-1.916,3.795-3.526,5.233-5.718a26.357,26.357,0,0,1,1.665-2.054,1.72,1.72,0,0,1,.06.357,31.237,31.237,0,0,1-.434,3.9c-.323,1.406.2,2.676.321,4.008a.935.935,0,0,0,.306.58c1.145.945,2.285,1.862,3.958,1.259a1.4,1.4,0,0,0,.65-2.127l-.617.295a1.966,1.966,0,0,1-.262-.223,1.125,1.125,0,0,1-.194-.312c-.714-1.955-.233-3.91.062-5.852.1-.664.557-1.28.624-1.941a23.517,23.517,0,0,1,2.123-7.969,3.69,3.69,0,0,0,.309-1.364" transform="translate(-549.432 -624.687)"/></g><g transform="translate(70.167 52.928)"><path class="a" d="M563.373,627.785h0l.018.018Z" transform="translate(-563.373 -627.785)"/></g><g transform="translate(31.261 38.998)"><path class="a" d="M526.278,627.8c.471-1.168.067-2.553,1.047-3.595l0,.007q-.39,1.825-.784,3.652l-.258-.065m1,1.964a.785.785,0,0,1-.044-.113c0-.009.031-.026.049-.04.013.034.026.069.04.1l-.044.049m.44-6.986.012.045-.039-.007Zm-2.243,14.846-.227-.047q.077-.365.153-.73l.182.065-.108.712m-.162.65.006-.043.041.028Zm1.569,10.292c.455-1.033.908-2.067,1.376-3.095.014-.032.166,0,.265,0q-.417,1.146-.837,2.292l-.206-.078c.075.469.314,1.039-.567.911l-.07.092c.014-.041.026-.082.04-.123m1.693-3.134a.124.124,0,0,1-.024.017l.021-.055c0,.013.008.031,0,.038m4.24-8.015a5.143,5.143,0,0,1,2.083-2.9c-.208.749-1.153,1.148-.957,2.023l-1.09.909c-.04.134-.079.267-.119.4,1.3.122,1.588-.743,1.748-1.738l.008.006a.262.262,0,0,1,0-.027h0l-.015.013,1.742-2.486-.435,1.8.238.2a9.194,9.194,0,0,1,.749-.957c.9-.887,1.79-1.778,2.737-2.608.56-.49,1.019-.381,1.149.319.223,1.2.285,2.431.4,3.65a4.79,4.79,0,0,1,.038,1.156,18.475,18.475,0,0,1-.486,2.366,20.7,20.7,0,0,1-2.935,5.942c-.631.912-1.15,1.9-1.8,2.806a7.717,7.717,0,0,1-1.243,1.189c-.331.291-.685.556-1.036.823a4.672,4.672,0,0,1-1.012.627c.8-.981,2.092-1.467,2.6-2.7-.045-.08-.089-.161-.133-.241a12.676,12.676,0,0,0-1.67.793c-.636.418-1.156,1.016-1.8,1.416-1.016.631-1.725.2-1.728-1.059l-.5.136c-.033-.181-.066-.358-.1-.548l-.929.717-.17-.139c.653-1.3,1.346-2.581,1.089-4.067.917-.533.917-.533.412-1.521l-.99,1.372a15.311,15.311,0,0,1,4.152-7.68m2.7-3.789.123.1-.291.409-.167-.127.335-.379m1.148.623-.182.142c-.013-.021-.041-.054-.034-.061.043-.057.094-.11.142-.164l.074.083m.075-1.487-.508.785c-.336-.472-.034-.688.508-.785m3.516,10.6-.028.025.015-.015q.231-.669.466-1.338l.368.18-.821,1.148M538.3,646.35l.04,0h.007v0H538.3m-.241.45h0l.027-.018-.024.017m-2.349,2.931a3.4,3.4,0,0,1,1.729-1.954q-.862.98-1.729,1.954m-.094.067h0m.031,0-.012.009.012-.009m-7.426.466c-.051-.04-.129-.069-.145-.12s.037-.114.069-.2c.079.068.158.106.177.164.012.036-.064.1-.1.154m12.932-8.768.059.021-.06.025Zm.156-.962h0l-.007.017.007-.017m.5-1.77.186.088-.275.491-.128-.06.216-.519m.359-3.974c.01.105.02.211.031.316l-.089.015c-.023-.1-.048-.208-.071-.312l.13-.019m.111,2.181.02.058-.046,0Zm-18.444,16.1.023-.05.018.052Zm.449-14.888a78.809,78.809,0,0,0-2.73,11.64c-.253,1.907-.288,3.841-.477,5.757a13.951,13.951,0,0,1-.491,1.951,6.05,6.05,0,0,0,.515.407c2.075,1.4,3.335,1.152,4.719-.913a14.119,14.119,0,0,1,.966-1.492,6.95,6.95,0,0,0,1.667-3.416,3.811,3.811,0,0,1,.505-1,5.514,5.514,0,0,0,1.35.64c2.142.3,4.3.326,6.078-1.125a30.6,30.6,0,0,0,3.4-3.311,24.477,24.477,0,0,0,2.494-3.308c.626-.994.984-2.154,1.578-3.171a11.347,11.347,0,0,0,1.322-7.494c-.294-2.136-1.574-3.019-3.673-2.591-.121.025-.243.04-.366.059l-.022-.088.781-.338a.454.454,0,0,0-.329-.1,2.157,2.157,0,0,0-.3.021,11.2,11.2,0,0,0-8.2,5.339,6.455,6.455,0,0,1-.422.611c-.852,1.106-1.75,2.18-2.541,3.327a6.184,6.184,0,0,0-.4,1.447,4.058,4.058,0,0,1-.49.831c-.058.088-.2.126-.242.216q-.731,1.5-1.439,3.008c-.145.311-.245.643-.378.96q-1.235,2.957-2.474,5.911a2.709,2.709,0,0,1-.256-1.325c.192-1.212.485-2.408.7-3.618.277-1.567.515-3.141.773-4.712a1.23,1.23,0,0,1,.119-.481,4.454,4.454,0,0,0,.715-2.88.584.584,0,0,1,.25-.475c1-.347.876-1.255.9-1.977a5.465,5.465,0,0,1,.669-2.893,5.586,5.586,0,0,0,.594-1.851c.461-2.263.88-4.533,1.32-6.8.185-.952.382-1.9.578-2.853a8.637,8.637,0,0,1,1.106-3.414,3.927,3.927,0,0,0,.511-1.744c.112-.94.076-1.9.161-2.841a16.121,16.121,0,0,1,.383-1.777c-.962.22-1.718.351-2.447.568a3.229,3.229,0,0,0-2.323,2.548c-.186.811-.324,1.636-.55,2.436-.749,2.653-.973,5.436-1.936,8.033-.92,2.481-.95,5.156-1.749,7.671-.587,1.849-.892,3.787-1.357,5.676-.183.739-.548,1.438-.678,2.183a46.5,46.5,0,0,1-1.35,6.129c-.807,2.546-.629,5.235-.633,7.88a3.341,3.341,0,0,0,.081.527,1.362,1.362,0,0,0,.25-.766c.107-1.638.16-3.28.329-4.911a25.946,25.946,0,0,1,.575-2.834c.5-2.283.923-4.586,1.523-6.842.862-3.24,1.859-6.444,2.783-9.667.227-.791.391-1.6.584-2.4a44.407,44.407,0,0,1-.707,4.576c-.377,1.7-.844,3.381-1.332,5.054" transform="translate(-520.178 -612.32)"/></g><g transform="translate(42.257 65.057)"><path class="a" d="M533.375,645.347c.575-1.083,1.065-2.21,1.589-3.321.109-.231.221-.46.331-.691l-.158-.085-2.752,4.544.138.187c.291-.208.7-.352.851-.635" transform="translate(-532.386 -641.251)"/></g><g transform="translate(42.576 65.074)"><path class="a" d="M533.88,641.27c-.521.039-1,.674-1.14,1.574h.842c.093-.488.2-1.034.3-1.574" transform="translate(-532.74 -641.27)"/></g><g transform="translate(41.101 70.34)"><path class="a" d="M532.527,647.26l-.3-.144-1.128,2.166.43.206.995-2.228" transform="translate(-531.103 -647.116)"/></g><g transform="translate(41.118 67.721)"><path class="a" d="M531.992,644.209l-.87,1.575.218.129c.677-.279.894-.724.652-1.7" transform="translate(-531.122 -644.209)"/></g><g transform="translate(40.418 73.579)"><path class="a" d="M530.345,651.939l.259.16.632-1.234-.3-.152-.59,1.226" transform="translate(-530.345 -650.713)"/></g><g transform="translate(51.429 64.433)"><path class="a" d="M543.019,640.558l-.45,1.029.283.082.167-1.111" transform="translate(-542.569 -640.558)"/></g><g transform="translate(41.243 69.646)"><path class="a" d="M531.482,647.3q.124-.426.25-.851l-.167-.105-.305.892.222.065" transform="translate(-531.261 -646.346)"/></g><g transform="translate(45.933 62.983)"><path class="a" d="M536.952,639.033l-.164-.084-.321.555.206.109.278-.58" transform="translate(-536.468 -638.949)"/></g><g transform="translate(46.022 62.181)"><path class="a" d="M536.659,638.293c.056-.005.107-.061.2-.119-.065-.055-.112-.122-.144-.115a.217.217,0,0,0-.142.108c-.012.026.063.129.091.126" transform="translate(-536.567 -638.059)"/></g><g transform="translate(45.346 64.418)"><path class="a" d="M535.869,640.662a.625.625,0,0,0,.118-.04l-.075-.079c-.032.024-.064.049-.1.076.018.015.038.047.053.044" transform="translate(-535.816 -640.542)"/></g><g transform="translate(45.571 62.795)"><path class="a" d="M536.173,638.818l-.108-.078.024.137.084-.059" transform="translate(-536.065 -638.74)"/></g><g transform="translate(50.799 66.99)"><path class="a" d="M541.87,643.415l.046.031.007-.048Z" transform="translate(-541.87 -643.397)"/></g><g transform="translate(51.879 64.376)"><path class="a" d="M543.123,640.518l-.03-.022h0l-.015,0-.008.057.022-.05.032.016" transform="translate(-543.069 -640.495)"/></g><g transform="translate(57.256 6.279)"><path class="a" d="M560.147,595.584l.012.047c0-.01-.007-.027-.012-.047h0m2.726-2.172.038.057-.019.064a.342.342,0,0,1-.06-.071c0-.008.027-.033.041-.05m1.423-1.148h0l-.012.017.011-.018m4.2-4.541c.005.005,0,.024-.006.037-.006-.019-.012-.038-.018-.056a.083.083,0,0,1,.024.019m.636-.413,0,.047-.043-.026Zm2.257-2.713a.171.171,0,0,1,.053.026s-.01.029-.016.044l-.089-.04.052-.031m-22,30.225c-.139.987-.244,1.98-.356,2.9l.82.438a4.9,4.9,0,0,1,1.016-3.11l.279.546c2.246-3.555,2.41-7.78,4.148-11.191,5.46,2.339,11.231,3.718,16.415,6.512a1.248,1.248,0,0,1,.757-.16c.693.176.788.105.713-.659l.019.018a13.288,13.288,0,0,0-3.889-3.143c-.954-.549-2.054-.869-2.948-1.493a14.755,14.755,0,0,0-5.477-2.334c-1.117-.233-1.806-1.052-2.96-1.337.451-.4.774-.694,1.109-.976,1.759-1.476,3.514-2.959,5.287-4.418a18.624,18.624,0,0,1,2.075-1.546,24.485,24.485,0,0,0,8.1-7.678,8.365,8.365,0,0,0,1.422-4.307,1.6,1.6,0,0,0-1.112-1.745c-.248-.1-.476-.246-.72-.359-.557-.26-1.115-.513-1.673-.769l-.268.094c.8,1.513-.031,2.55-.786,3.651a17.218,17.218,0,0,0-1.083,2.137l-.032.013a.327.327,0,0,1,.018-.029q-.907.907-1.816,1.812l0,0c-1.151,1.112-2.3,2.23-3.457,3.337-1.066,1.02-2.142,2.028-3.213,3.04l.365-.035c.022.063.043.125.066.188l-.667.194c.039-.049.078-.1.118-.148s.054-.111.082-.167l-.136.115c-.054.047-.108.094-.161.141l-1.312,1.2h0l-2.263,1.662-.189-.13c.213-.776.415-1.556.638-2.328.573-1.992,1.176-3.975,1.72-5.974.151-.556.055-1.18.214-1.732.6-2.107,1.3-4.188,1.888-6.3a6.138,6.138,0,0,0,.193-2.051,2.519,2.519,0,0,0-1.54-2.424c-1.249-.525-1.766-.366-2.268.855-.25.609-.665,1.148-.959,1.741-.394.789-.784,1.584-1.1,2.408a1.063,1.063,0,0,0,.513,1.282l1.211-1.478c-.051.28-.06.4-.094.51-.917,3.08-2.074,6.091-2.687,9.262a27.868,27.868,0,0,1-1.111,4.677c-.4,1.047-.424,2.228-1.147,3.177a3.969,3.969,0,0,0-.422,1.408c-.93,3.681-1.882,7.357-2.768,11.049-.286,1.2-.4,2.434-.576,3.655" transform="translate(-549.039 -575.994)"/></g><g transform="translate(69.98 24.355)"><path class="a" d="M563.176,596.075l.011-.012-.022,0Z" transform="translate(-563.165 -596.063)"/></g><g transform="translate(81.09 37.202)"><path class="a" d="M575.518,610.344l0-.007-.014-.011.018.018" transform="translate(-575.5 -610.326)"/></g><g transform="translate(80.261 14.614)"><path class="a" d="M574.713,603.64a6.131,6.131,0,0,0,.711,4.207,3.738,3.738,0,0,0,1.129.757,4.714,4.714,0,0,0,1.8,0c1.578-.274,3.143-.609,4.247-1.954a10.81,10.81,0,0,1,1.71-1.846,16.482,16.482,0,0,0,3.039-3.513c.475-.627,1.017-1.2,1.528-1.8-.053,1.723-.336,3.384-.383,5.052a18.107,18.107,0,0,0,.444,3.324.89.89,0,0,0,.323.482c1.145.918,2.278,1.729,3.929,1.179a1.123,1.123,0,0,0,.77-.908,4.492,4.492,0,0,0-.066-1.425c-.751.724-1.047.382-1.24-.176-.651-1.889-.178-3.778.072-5.651.1-.785.615-1.519.694-2.3a23.081,23.081,0,0,1,2.088-7.678,3.784,3.784,0,0,0,.31-1.365c.026-.428-.153-.939-.677-.842a9.521,9.521,0,0,0-3.265.868,7.8,7.8,0,0,0-3.253,4.016,5.07,5.07,0,0,1-.269.543v.015c-.44.5-.9.991-1.311,1.51a4.443,4.443,0,0,0-.361.72,9.082,9.082,0,0,1-.634,1.14c-.555.759-1.138,1.5-1.737,2.224-.44.53-.934,1.016-1.392,1.532a2.968,2.968,0,0,0-.623.805,3.075,3.075,0,0,1-1.685,1.848,10.542,10.542,0,0,0-1.89,1.4c-.16.123-.309.259-.463.39l-.214-.1c.247-.993.439-2,.751-2.973a36.647,36.647,0,0,1,4.155-8.367,57.172,57.172,0,0,1,4.018-6.334,1.648,1.648,0,0,0,.19-.477l-.161-.154.478-.289c.577-.192,1.164-.359,1.728-.585a1.228,1.228,0,0,1,1.358.268,4.479,4.479,0,0,0,.736.612c.924.491,1.773,1.412,2.97.627l-.016.007c.033-.254.067-.507.128-.98a14.1,14.1,0,0,0-1.837-1.583,3.665,3.665,0,0,0-1.955-.617,11.688,11.688,0,0,0-7.2,2.812c-.341.286-.707.539-1.052.82a5.852,5.852,0,0,0-1.918,2.4,6.678,6.678,0,0,1-.532,1.055,56.766,56.766,0,0,0-3.308,5.483,32.629,32.629,0,0,0-1.865,5.82" transform="translate(-574.579 -585.248)"/></g><g transform="translate(92.839 17.309)"><path class="a" d="M588.544,588.24h0l.018.018Z" transform="translate(-588.544 -588.24)"/></g><g transform="translate(50.548 40.657)"><path class="a" d="M541.6,614.174v-.008l-.01,0Z" transform="translate(-541.591 -614.162)"/></g><g transform="translate(40.59 16.415)"><path class="a" d="M532.4,595.534a2.3,2.3,0,0,0,.431-.455c.592-1.115,1.162-2.242,1.739-3.365a8.767,8.767,0,0,1-.434,1.63,25.913,25.913,0,0,1-1.682,3.206c-.655,1.019-.838,2.228-1.546,3.246a4.966,4.966,0,0,0-.362,2.383,3.871,3.871,0,0,0,1.022,3.277c.214.2.414.423.63.625a2.448,2.448,0,0,0,2.1.681,5.885,5.885,0,0,0,3.987-2.562c1.038-1.378,2.066-2.763,3.1-4.145-.521,3.848-1.4,7.58-.887,11.437.543.166.007.472.081.7.432,1.309,1.006,2.473,2.5,2.895a1.5,1.5,0,0,0,1.642-.215c.485-.522.121-1.083-.207-1.537a2.315,2.315,0,0,1-.439-1.814,5.05,5.05,0,0,0,.026-.739,43.355,43.355,0,0,1,.084-4.387c.251-2.165.827-4.294,1.013-6.46a17.846,17.846,0,0,1,1.617-5.581,31.368,31.368,0,0,0,1.722-5.7,1.166,1.166,0,0,0-.4-.957,2.509,2.509,0,0,0-3.576.789c-.416.783-.746,1.611-1.093,2.428a5.724,5.724,0,0,1-2.206,3.065c-.231.134-.329.506-.477.774-.27.487-.528.981-.8,1.468-.189.341-.384.679-.591,1.009-.278.443-.576.875-.857,1.316-.213.338-.4.691-.622,1.023q-.538.816-1.105,1.612c-.141.2-.329.362-.485.55q-.958,1.153-1.911,2.311l-.282-.112a20.455,20.455,0,0,1,.341-2.871c.348-1.347,1.038-2.621,1.265-3.979a10.039,10.039,0,0,1,1.393-3.374,2.832,2.832,0,0,0,.522-1.574c-.076-.539-.516-1.369-.9-1.434a3.706,3.706,0,0,1-1.121-.5c-.34-.166-.526-.1-.734.3-.864,1.643-1.8,3.248-2.7,4.868l.212.177" transform="translate(-530.535 -587.247)"/></g><g transform="translate(69.965 24.357)"><path class="a" d="M563.164,596.065l-.016.031.026-.022Z" transform="translate(-563.148 -596.065)"/></g><g transform="translate(26.664 1.959)"><path class="a" d="M516.028,571.984c.645.169.72-.114.593-.786-.531.314-1.21.094-1.546.82a3.762,3.762,0,0,1,.953-.034" transform="translate(-515.075 -571.198)"/></g><g transform="translate(18.583 7.816)"><path class="a" d="M506.153,578.047l.648-.157c-.013-.063-.027-.127-.042-.19l-.657.114c.017.077.033.155.05.232" transform="translate(-506.103 -577.7)"/></g><g transform="translate(20.679 7.245)"><path class="a" d="M508.485,577.444l.661-.182-.051-.2-.665.167c.018.071.037.142.055.212" transform="translate(-508.43 -577.066)"/></g><g transform="translate(29.377 2.085)"><path class="a" d="M518.607,571.522c-.021-.061-.042-.123-.063-.184l-.458.19.051.142.47-.149" transform="translate(-518.086 -571.338)"/></g><g transform="translate(2.543 38.593)"><path class="a" d="M488.333,611.87l-.038.31.125.017c.013-.1.025-.207.037-.31l-.124-.017" transform="translate(-488.295 -611.87)"/></g><g transform="translate(19.924 7.616)"><path class="a" d="M507.591,577.531l.041.05.1-.056c-.014-.017-.033-.05-.041-.047a.641.641,0,0,0-.1.053" transform="translate(-507.591 -577.478)"/></g><g transform="translate(13.737 28.861)"><path class="a" d="M500.722,601.112l.047,0-.018-.05Z" transform="translate(-500.722 -601.066)"/></g><g transform="translate(0)"><path class="a" d="M507.236,595.411l.005-.042.041.027Zm-1.174.905c-.013-.015-.036-.033-.034-.048s.028-.026.044-.039c.012.016.035.033.033.048s-.028.026-.043.039m-.991-.161,0-.038.047.022Zm-13.291.118-.149-.043.364-1.3.146.1q-.18.625-.36,1.248m-.58,2.017a.792.792,0,0,1-.155-.049,1.338,1.338,0,0,1,.061-.23l.152.038c-.02.08-.039.16-.059.24m-.171.892c.005-.051.01-.1.014-.155l.088.045-.1.11m.027-2.175.038.025-.043.015Zm-.793,12.742c.008-.02.015-.041.023-.06.015,0,.041,0,.045.005a.192.192,0,0,1,.014.062l-.081-.007m-.407-4.247v-.2l.065-.009.038.215-.1,0m-.447-.3.024-.036.013.042Zm-1.031,4.18-.1-.053q.07-.173.14-.346l.174.1-.211.3m-.238,1.014-.1-.007c.007-.1.014-.207.021-.312l.105.008c-.008.1-.016.207-.025.311m-.388,2.151-.116-.034.138-.422.1.029-.119.427m17.839-37.115.045.087-.284.151-.048-.092.286-.147m.134-2.115.166.223-.437.293a1.454,1.454,0,0,1-.134-.224,4.513,4.513,0,0,1,.405-.292m.948-.214.426.4-.158.173-.439-.387.171-.19m2.276-.489c.041.137.08.273.121.41l-1.032.287-.1-.327,1.013-.37m.617-.186.5.046c-.009.07-.019.14-.028.211l-.491-.086c.008-.057.015-.114.023-.171m13.145-2.149-.025.032-.013-.039ZM508.9,595.867c.011.044.023.087.034.131-.028.025-.055.05-.081.075-.023-.053-.046-.107-.068-.16l.115-.046m-1.619.71c.12-.324.226-.611.344-.931h.691l-.3.489.3-.225c.085.286.168.572.252.858l.3-.034c.168-.264.521-.579.466-.78a5.489,5.489,0,0,0-.721-1.243,3.093,3.093,0,0,1-.314.243.611.611,0,0,1-.31.12,7.219,7.219,0,0,0-4.451,1.331,2.53,2.53,0,0,1-.71.3,5.752,5.752,0,0,0-1.656.379,5.54,5.54,0,0,1-3.039,1.046,15.628,15.628,0,0,0-3.67.96c.145-.675.247-1.328.429-1.958.286-.993.633-1.97.944-2.956.515-1.632.971-3.286,1.547-4.9.521-1.453,1.211-2.844,1.749-4.289.576-1.543,1.04-3.126,1.593-4.678.416-1.167.7-2.454,2.118-2.928l-1.03.128,1.645-1.2a5.177,5.177,0,0,0,1.407-.022,5.69,5.69,0,0,0,1.86-.882c.922-.758,2.08-.332,2.991-.89.088.4.152.694.215.984l.28.016c-.483-.93.073-1.25.758-1.4.852-.191,1.726-.278,2.582-.451,1.2-.244,2.382-.6,3.591-.772.911-.133,1.9.16,2.687-.554.63.5,1.256.035,1.884-.008.29-.02.584-.016.872-.057.313-.043.619-.166.931-.178.452-.018.906.04,1.36.051a11.113,11.113,0,0,1,2.14.069,2.193,2.193,0,0,0,1.538-.065,3.9,3.9,0,0,0,.729-.618c-.443-.226-.046-.984-.85-1.108a5.084,5.084,0,0,1-2.327-1.016,1.677,1.677,0,0,0-1.693-.276c-1.072.267-2.155.494-3.228.756a7.3,7.3,0,0,0-.85.328l.77.673a2.692,2.692,0,0,1-2.817.354l1.564-.967-.105-.176-1.42.447-.933,1.139c-.29-.215-.517-.384-.774-.573l.771-.339c-.01-.048-.021-.1-.031-.145l-1.66.155c.505.736-.144.99-.444,1.3-.148.152-.614-.005-.936-.022a12.85,12.85,0,0,1-1.763.3c-.061.007-.133-.017-.184.007-.886.432-.886.433-1.6-.051l.881-.569c-.029-.053-.058-.107-.087-.16-.432.222-1.16-.445-1.291.325-.58,0-1.1.018-1.611,0-.7-.032-1.186.521-1.952.505a16.69,16.69,0,0,0-5.755,1.256c-.278.1-.606.283-.848.212a3.706,3.706,0,0,0-2.341.453,6,6,0,0,1-.774.2c-.577.11-1.163.181-1.736.312-.885.2-1.757.468-2.644.659-2.091.45-4.169,1.107-6.326.225-.419-.171-.973.421-.8.873a3.443,3.443,0,0,0,.973,1.573,9.74,9.74,0,0,0,5.516,1.636,21.009,21.009,0,0,0,3.354-.422c.317-.041.639-.043,1.039-.068-.259.619-.484,1.076-.645,1.554-.258.768-.441,1.563-.712,2.326-.924,2.6-1.876,5.194-2.809,7.794-.149.415-.269.843-.377,1.271-.407,1.616-.771,3.244-1.216,4.849-.274.991-.691,1.941-.994,2.925-.2.645-.491,1.161-1.228,1.188-1.325.048-1.862.98-2.287,2.014a3.361,3.361,0,0,0-.015,1.043,14.118,14.118,0,0,1,1.376-.853.993.993,0,0,1,.789-.051c.2.117.291.462.349.725a3.875,3.875,0,0,1,.012.811l.176.081.851-1.078c-.122,1.408-1.763,1.907-1.4,3.4l1.058-.871-.543,1.789c-.164-.057-.3-.155-.419-.137-.654.1-.8.652-.92,1.164q-.866,3.709-1.687,7.428a6.988,6.988,0,0,0,.172,3.592,3.675,3.675,0,0,0,3.431,2.976c.763.022.975-.251.847-.987a8.244,8.244,0,0,1-.231-2.036c.142-1.737.345-3.471.617-5.193a26.65,26.65,0,0,1,1.421-5.88,12.459,12.459,0,0,0,.776-3.667,3.574,3.574,0,0,1,2.713-3.46,19.829,19.829,0,0,0,2.435-.877,24.908,24.908,0,0,1,5.858-2.35c1.393-.272,2.65-1.232,4.143-1.97l-.641-.264" transform="translate(-485.471 -569.023)"/></g><g transform="translate(22.844 22.156)"><path class="a" d="M514.741,613.251c-.226-.245-.14-.779-.185-1.189a1.993,1.993,0,0,1,.027-.778c.074-.545-1.027-2.484-.9-3.016a6.268,6.268,0,0,1,.534-1.5,10.535,10.535,0,0,0,.986-3.81,8.892,8.892,0,0,1,1.3-2.581c2.691-3.6,5.261-3.479,5.55-2.891.488,1.272.876,2.333,1.309,3.375.111.267.016.859.354,1.006.013.073.053.156.032.218a34.2,34.2,0,0,1-2.679,6.662,10.575,10.575,0,0,1-5.2,4.524c-.341.133-.948.177-1.13-.02M513.3,602.962l-.187-.107.527-.649-.341.756m-.636,6.823-.111-.044.287-.766.176.074Zm1.321-3.587h.032l-.036.013,0-.013m.48-5.012c.028.013.035.071.052.109-.033.008-.077.033-.1.021a.382.382,0,0,1-.078-.1c.042-.011.09-.04.122-.026m-.031-1.137-.011.031h0l.014-.031m8.3-2.76q.16.461.32.921l-.088.028-.444-.85.213-.1m.643-1.314c-.027.158-.04.24-.055.322a1.174,1.174,0,0,1-.1-.177c0-.014.056-.054.157-.145m.134,3.466,0,.007h-.038Zm.425,1.418-.27.052q-.07-.709-.14-1.419.205.682.41,1.366m-2.233,8.569c-.13.15-.424.159-.643.233,1.215-1.828,1.452-4.17,3.181-5.48a9.069,9.069,0,0,1-2.538,5.247m-9.439-.556h0m-.231.742-.178-.075.356-.544q-.088.309-.177.619m9.024,4.07a14.815,14.815,0,0,0,4.823-7.9,17.433,17.433,0,0,0,.992-3.461,5.29,5.29,0,0,0-.2-1.682l-.187.086a9.84,9.84,0,0,0-.331-2.318c-.232-.967-.417-1.59-.52-2-.38-1.512-.933-2.745-2.6-2.741-1.4,0-3.692-.638-7.1,2.464-.356.323-2,2.522-2.118,2.71-.463.743-.959,1.739-1.437,2.474a15.66,15.66,0,0,0-1.347,3.812c-.5,1.464.073,4.266,0,5.823a4.587,4.587,0,0,0,2.725,3.992,7.707,7.707,0,0,0,7.294-1.263" transform="translate(-510.834 -593.621)"/></g><g transform="translate(23.808 25.417)"><path class="a" d="M512.8,597.62l-.9-.379c.064.679.37.547.9.379" transform="translate(-511.904 -597.241)"/></g><g transform="translate(24.495 25.345)"><path class="a" d="M512.73,597.163c-.016-.007-.064.015-.064.019,0,.032.02.092.027.091a.67.67,0,0,0,.137-.036.574.574,0,0,0-.1-.074" transform="translate(-512.666 -597.161)"/></g><g transform="translate(85.576 78.847)"><path class="a" d="M580.552,656.561c-.142.061-.028.179-.04.149.092-.01.031-.124.04-.149" transform="translate(-580.48 -656.561)"/></g><g transform="translate(84.033 79.553)"><path class="a" d="M578.767,657.516l.174-.116.014-.055Z" transform="translate(-578.767 -657.345)"/></g><g transform="translate(82.836 79.638)"><path class="a" d="M578.188,657.593l.051.038.071-.192a3.614,3.614,0,0,1-.873.285c.178.177.489-.148.75-.13" transform="translate(-577.438 -657.439)"/></g><g transform="translate(81.992 79.616)"><path class="a" d="M576.686,657.429a.3.3,0,0,1-.036-.014,1.148,1.148,0,0,1-.141.028c.064.069-.141.105.177-.014" transform="translate(-576.502 -657.415)"/></g><g transform="translate(82.112 79.584)"><path class="a" d="M576.663,657.411c.143-.039-.11-.046,0,0" transform="translate(-576.634 -657.38)"/></g><g transform="translate(81.369 79.641)"><path class="a" d="M575.925,657.618l.173-.115c-.051-.039-.223-.01-.168-.059-.186.085-.134.122-.005.175" transform="translate(-575.809 -657.443)"/></g><g transform="translate(81.339 79.946)"><path class="a" d="M575.777,657.843l.091-.053c-.022-.016-.05-.017-.091.053" transform="translate(-575.777 -657.781)"/></g><g transform="translate(81.431 79.843)"><path class="a" d="M575.969,657.734c0,.065.025,0,.1-.067l-.194.112c.035.027.053.094.09-.045" transform="translate(-575.879 -657.667)"/></g><g transform="translate(81.75 79.805)"><path class="a" d="M576.233,657.667c.117.021.261.017.087.132.358-.113.269-.245-.087-.132" transform="translate(-576.233 -657.624)"/></g><g transform="translate(82.813 80.082)"><path class="a" d="M577.415,658l.157.028.107-.1c-.053.049-.288.007-.264.07" transform="translate(-577.413 -657.932)"/></g><g transform="translate(80.274 79.982)"><path class="a" d="M574.594,657.821c0,.047.092.1.119.155l.129-.082c-.079-.014-.222-.01-.248-.073" transform="translate(-574.594 -657.821)"/></g><g transform="translate(80.2 80.138)"><path class="a" d="M574.7,657.994l-.193.124c.19-.035.216-.078.193-.124" transform="translate(-574.512 -657.994)"/></g><g transform="translate(81.293 80.007)"><path class="a" d="M575.725,658.1l.066-.017.309-.239Z" transform="translate(-575.725 -657.849)"/></g><g transform="translate(79.39 80.032)"><path class="a" d="M573.612,658.08l.081-.073.094-.13Z" transform="translate(-573.612 -657.877)"/></g><g transform="translate(78.525 80.113)"><path class="a" d="M573.069,658.155c.068-.1-.154-.115-.073-.188a.981.981,0,0,0-.344.241.583.583,0,0,1,.417-.052" transform="translate(-572.652 -657.967)"/></g><g transform="translate(78.361 80.354)"><path class="a" d="M572.47,658.372a1.134,1.134,0,0,0,.165-.138.607.607,0,0,0-.165.138" transform="translate(-572.47 -658.234)"/></g><g transform="translate(79.643 80.235)"><path class="a" d="M573.893,658.1l.112.1.083-.017a.24.24,0,0,0-.194-.087" transform="translate(-573.893 -658.102)"/></g><g transform="translate(79.574 80.338)"><path class="a" d="M574,658.22l0,0-.18.034.184-.031" transform="translate(-573.817 -658.217)"/></g><g transform="translate(79.838 80.318)"><path class="a" d="M574.131,658.194l-.021,0c.011.01.016.013.021,0" transform="translate(-574.11 -658.194)"/></g><g transform="translate(80.582 80.26)"><path class="a" d="M575.062,658.409c.068-.105-.088-.132.074-.279-.108.1-.348.231-.074.279" transform="translate(-574.935 -658.13)"/></g><g transform="translate(79.997 80.307)"><path class="a" d="M574.507,658.182l-.22.141.23-.023c-.012-.032-.063-.069-.01-.118" transform="translate(-574.287 -658.182)"/></g><g transform="translate(79.897 80.449)"><path class="a" d="M574.191,658.348l-.015.056.1-.064Z" transform="translate(-574.176 -658.339)"/></g><g transform="translate(78.465 80.511)"><path class="a" d="M572.891,658.417a.763.763,0,0,1-.305.14,2.026,2.026,0,0,0,.394-.051c.009-.042.048-.125-.088-.089" transform="translate(-572.586 -658.408)"/></g><g transform="translate(79.233 80.444)"><path class="a" d="M573.458,658.334l-.02.012c.015.008.027.009.02-.012" transform="translate(-573.438 -658.334)"/></g><g transform="translate(77.292 80.925)"><path class="a" d="M571.307,658.89v-.022l-.023,0,.024.018" transform="translate(-571.283 -658.868)"/></g><g transform="translate(78.858 80.534)"><path class="a" d="M573.247,658.434a1.5,1.5,0,0,1-.224.075c0,.019,0,.031.027.018a.235.235,0,0,0,.2-.093" transform="translate(-573.021 -658.434)"/></g><g transform="translate(78.047 80.61)"><path class="a" d="M572.122,658.533a1.211,1.211,0,0,0,.182.03c-.058-.028-.172-.066-.182-.03" transform="translate(-572.122 -658.518)"/></g><g transform="translate(79.179 80.411)"><path class="a" d="M573.392,658.316l.014-.009c-.038-.019-.031-.007-.014.009" transform="translate(-573.378 -658.297)"/></g><g transform="translate(79.083 80.429)"><path class="a" d="M573.382,658.318a.582.582,0,0,0-.11.1.869.869,0,0,0,.15-.078.187.187,0,0,1-.041-.027" transform="translate(-573.272 -658.318)"/></g><g transform="translate(76.856 80.947)"><path class="a" d="M571.07,659.109c.092.045.524.033.362.18-.278.126-.249.014-.405-.014.155.115-.323.294-.21.489l.239-.133c.013.031-.068.105.01.119-.01-.119.218-.283.465-.21.194-.135-.035-.48-.271-.648,0,.051.015.1-.189.216" transform="translate(-570.8 -658.893)"/></g><g transform="translate(77.315 80.744)"><path class="a" d="M571.309,658.848l.45-.087-.027.024.088-.035a.86.86,0,0,1-.351-.083c-.138.091-.159.141-.16.181" transform="translate(-571.309 -658.667)"/></g><g transform="translate(77.827 80.655)"><path class="a" d="M572.291,658.573h0v0c.022.012.031.02.008.015l-.009,0a.123.123,0,0,1-.008.052c-.131,0-.027-.028.008-.052a.144.144,0,0,0,0-.02h0l-.414.168a1.73,1.73,0,0,0,.407-.095c-.041.141-.247.244-.082.349.265-.07.162-.147.309-.238-.422.13.107-.1-.22-.1a1.322,1.322,0,0,1,.224-.087,1.812,1.812,0,0,1-.236-.005l.012.005" transform="translate(-571.877 -658.568)"/></g><g transform="translate(80.502 80.834)"><path class="a" d="M574.887,658.793a.037.037,0,0,1-.021-.026c-.024.022-.032.035.021.026" transform="translate(-574.847 -658.767)"/></g><g transform="translate(80.085 80.596)"><path class="a" d="M574.807,658.586l-.026.024a.981.981,0,0,1-.4-.107.84.84,0,0,0,.262.23.183.183,0,0,1,.146-.091c.1.017.014.059.028.1.054-.047.194-.139-.013-.155" transform="translate(-574.384 -658.503)"/></g><g transform="translate(80.064 80.572)"><path class="a" d="M574.382,658.5l-.019-.024c-.005.005,0,.014.019.024" transform="translate(-574.361 -658.476)"/></g><g transform="translate(78.941 80.813)"><path class="a" d="M573.114,658.888l.208.066-.024-.062c.21-.022.147-.092.16-.148Z" transform="translate(-573.114 -658.744)"/></g><g transform="translate(77.089 80.734)"><path class="a" d="M571.058,658.89l.147-.091.017-.142Z" transform="translate(-571.058 -658.656)"/></g><g transform="translate(76.657 80.882)"><path class="a" d="M570.578,658.917l.117.021-.01-.118Z" transform="translate(-570.578 -658.82)"/></g><g transform="translate(64.983 83.524)"><path class="a" d="M557.966,661.879c-.179-.071-.39-.2-.34-.073l.077.115a.447.447,0,0,1,.264-.042" transform="translate(-557.618 -661.754)"/></g><g transform="translate(57.695 86.177)"><path class="a" d="M549.526,664.819l.054.026.072-.146-.126.12" transform="translate(-549.526 -664.699)"/></g><g transform="translate(71.663 82.133)"><path class="a" d="M565.383,660.222a1.2,1.2,0,0,0-.349,0c.177.035.331.113.349,0" transform="translate(-565.034 -660.209)"/></g><g transform="translate(50.788 87.432)"><path class="a" d="M541.929,666.093c-.059.04-.078.073-.069.1.06-.04.091-.073.069-.1" transform="translate(-541.858 -666.093)"/></g><g transform="translate(71.28 82.131)"><path class="a" d="M564.609,660.311c.026.007.051.008.078.013a1.072,1.072,0,0,1,.305-.1.381.381,0,0,0-.383.088" transform="translate(-564.609 -660.207)"/></g><g transform="translate(27.401 94.906)"><path class="a" d="M516.065,674.39a.478.478,0,0,0-.172.071,1.52,1.52,0,0,1,.172-.071" transform="translate(-515.893 -674.39)"/></g><g transform="translate(74.886 81.359)"><path class="a" d="M568.612,659.368c.1-.031.013-.017,0,0" transform="translate(-568.612 -659.35)"/></g><g transform="translate(74.913 81.392)"><path class="a" d="M568.777,659.395a.643.643,0,0,0-.135-.008.783.783,0,0,0,.135.008" transform="translate(-568.642 -659.386)"/></g><g transform="translate(75.014 81.317)"><path class="a" d="M568.754,659.332l.089-.008c.008-.023-.006-.034-.089.008" transform="translate(-568.754 -659.303)"/></g><g transform="translate(74.75 81.377)"><path class="a" d="M568.6,659.37l-.136.039a.756.756,0,0,1,.163-.024c-.022,0-.032-.009-.027-.014" transform="translate(-568.461 -659.37)"/></g><g transform="translate(75.688 81.088)"><path class="a" d="M569.5,659.126a.338.338,0,0,1,.2,0c-.011-.027-.05-.058-.019-.077Z" transform="translate(-569.503 -659.049)"/></g><g transform="translate(77.88 81.409)"><path class="a" d="M572.012,659.51c.027-.024.066-.017.093-.041l-.023-.063c-.132.035-.213.109-.069.1" transform="translate(-571.936 -659.406)"/></g><g transform="translate(74.441 81.389)"><path class="a" d="M568.322,659.421c.044-.167-.432.29-.061.122.078.014.01-.16.061-.122" transform="translate(-568.118 -659.383)"/></g><g transform="translate(26.425 95.075)"><path class="a" d="M514.809,674.587l.158.052.056-.061Z" transform="translate(-514.809 -674.578)"/></g><g transform="translate(26.176 95.252)"><path class="a" d="M514.7,674.941l-.111-.166-.057.205c.041-.023.12-.068.167-.04" transform="translate(-514.533 -674.775)"/></g><g transform="translate(19.423 81.029)"><path class="a" d="M561.123,660.048l-.152.024a.507.507,0,0,1,.5-.188.306.306,0,0,1,.079.045,3.277,3.277,0,0,1-.426.119m.319-.353-.006.009c-.174-.017-.112-.009.006-.009m-5.457,1.78a.511.511,0,0,1,.006-.222c.022,0,.222.034.41.076l-.416.147m-1.708.62c-.187.069-.376.137-.563.205a1.48,1.48,0,0,1,.5-.661l.1.077.294-.182a5.274,5.274,0,0,1-.33.56m-.974.354c-.1.037-.208.075-.313.111a.5.5,0,0,1,.332-.214.263.263,0,0,0-.02.1m-1.28.446-.042.014.071-.087a.1.1,0,0,0-.029.073m-.5.167c.02-.09.07-.177.151-.19a.406.406,0,0,0,.021.134l-.172.056m-.109-.671c-.011-.031-.049-.038.011-.054a.219.219,0,0,0-.011.054m-.416.837c-.038-.068-.055-.136-.01-.156.1.051.154.079.2.1l-.188.058m-.406.121-.118-.192-.057.242-.247.069.493-.848c-.014.165.184.442.167.659l-.238.07m-.5.141q-.28.076-.557.142c.3-.1.544-.233.548-.37a1.276,1.276,0,0,1,.009.228m-1.658.352-.178.06-.058.012a.22.22,0,0,1,.275-.117c-.065.019-.1.014-.117.069.115-.11.431-.144.46-.078a.95.95,0,0,0-.381.054m-.594.146a1.119,1.119,0,0,0,.261-.116.151.151,0,0,1,.012.059l-.273.057m-1.258.258a2.1,2.1,0,0,1,.73-.513c-.09.157-.008.23.043.355-.258.052-.516.1-.774.158m-.661.139-.169.036a.476.476,0,0,1-.059-.012.419.419,0,0,1,.236-.031l-.007.006m-.38-.029c-.058-.024-.115-.05-.172-.077a.942.942,0,0,0-.09.242l-.247.052a1.409,1.409,0,0,1,.283-.321,2.343,2.343,0,0,0-.231-.1l.369-.2c.055.018.031.091-.013.185.023-.022.044-.043.06-.062.159.031.113.156.04.285m-19.378,4.819.075.015c-.132.086-.1.037-.075-.015m-11.9,4.2h0Zm49.623-14.165a.665.665,0,0,1,.31-.1c-.167-.146-.059.035-.3-.124.216.2-.6.157-.418.322h0c-.224-.138-.343,0-.633-.13.021.056.119.09-.119.114a.249.249,0,0,1-.039.063h-.016l.014,0c-.008.011-.009.012.005,0a.278.278,0,0,1,.139.062.359.359,0,0,1-.142.127c-.154.05-.306.1-.453.151.014-.022.022-.047-.014-.064l-.122.111-.05.017c-.076-.108-.389-.122-.1-.264l-.292.061a.865.865,0,0,0-.564.08c-.144,0-.313.223-.217.094l-.438.186-.012-.031c-.454.087-.876.429-1.447.313a1.419,1.419,0,0,1-.554.166l-.076-.1c-.186.084-.611.022-.667.158-.281-.254-.96.151-1.315.177l.022.15a3.247,3.247,0,0,0-.732.266l.049.125c-.227.165-.67.057-1.067.162.015-.056.12-.066.2-.052-.547-.183-.956.444-1.438.331a.3.3,0,0,1-.261.058.073.073,0,0,0,.025-.013.416.416,0,0,0-.045.008c-.053-.011-.108-.025-.166-.034a.546.546,0,0,0,.142.041,1.611,1.611,0,0,0-.321.128l-.086-.127a.2.2,0,0,0-.028.011c-.133-.024-.081.088.008.177a.676.676,0,0,0-.143.122c-.152-.2-.306.151-.5-.058-.051.125-.521.216-.6.436a.569.569,0,0,0-.393.105l-.1-.163-.244.307c-.208-.066-.3-.112-.15-.289-.388.31-.336.16-.659.454l-.009-.119c-.132.035-.308.238-.411.161-.351-.158-1.477.338-2.291.325.233.3-.394-.06-.358.207-.064-.068-.182-.085-.077-.186-.368.178-.615.025-.827.314-.065-.068.053-.138,0-.175-.027.025-.106.1-.158.064s.04-.081.092-.131c-.393.116-.369.371-.339.607-.229-.056-.325-.015-.431.173-.089-.057-.226-.1.012-.2-.141.023-.874.111-.839.3-.056-.035-.2.038-.228.068a5.15,5.15,0,0,0-.645.161l.093.007c-.061.254-.24.117-.479.209v-.024c-.605-.009-.223.14-.826.108l.067.13c.029.31-.538-.041-.829.16l.138.047c-.148.149-.6-.268-.788-.257-.045-.015.05-.058.1-.092-.511-.048-.011.2-.344.332-.09-.08.014-.269-.223-.224-.138-.048-.585.5-.953.4.091.056.18.111.036.212-.237.1-.741-.1-.9.2-.037-.012-.054-.028-.06-.046-.17.113-.58.271-.657.432-.307-.424-1.1.562-1.216.124l-.568.188,0-.049a.759.759,0,0,0-.574.361c-.094,0-.043-.063-.043-.088a1.277,1.277,0,0,0-.994.452l-.088-.128c-.1.118-.841,0-1.316.328a.1.1,0,0,1,.039-.081c-.54.342-1.532.032-1.593.611l-.351.245c.244-.054.255,0,.224.071l-.28.078c-.046-.227-.651.122-.691-.056-.986.313-2,.468-2.925.748l.172.174-.326.089c-.1-.023-.165-.127.068-.19-.158-.08-.355.219-.347.266-.476.06.1-.3-.041-.258l-.183.075.05.011c-.125.133-.111.227-.39.306-.187.014-.13-.1-.2-.085,0-.015-.03-.015-.107.027l-.412.112.214.112c-.142.128-.35.116-.184.214l-.012,0c-.418-.123-1.5.4-1.684.374a1.686,1.686,0,0,1-.774.366.109.109,0,0,1,.036.013l-.2.062c-.163-.091-.523.116-.759-.039.231.107-.589.267-.417.414l-.06.02c-.034-.043,0-.131-.133-.153-.476.323-1.191.289-1.822.561.006.052.141.091.026.213l-.426-.131c-.12.068-.021.325-.312.233.047.031.117.077.037.122a8.778,8.778,0,0,0-1.949.617,5.614,5.614,0,0,1-2.017.474c.208.034.1.085-.036.135.081-.006.053.088.069.154l-.085.03-.507,0c-.03.205-.5.217-.558.377q-3.455,1.248-6.872,2.6c-.931.368,1.675,4.875,2.546,4.468,4.884-2.285,9.776-4.548,14.839-6.413,5.092-1.875,10.255-3.565,15.388-5.322l7.276-2.489c1.33-.286,8.937-3.575,12.93-5.131a.354.354,0,0,0,.135-.023.125.125,0,0,1,.043-.046c.218-.085.424-.164.617-.236l0,.02.038-.035c.117-.044.229-.085.335-.123.947-.343,3.433-.951,3.312-1.411-.046-.177-.374-.17-.815-.078" transform="translate(-507.035 -658.984)"/></g><g transform="translate(88.088 75.502)"><path class="a" d="M587.3,652.875c-1.975,1.362-3.622,5.093-4.022,7.3-.085.467.632.667.717.2a11.994,11.994,0,0,1,2.614-5.615c.305-.364,1.085-2.155.691-1.882" transform="translate(-583.269 -652.847)"/></g></g></g></svg>